<svg id="Warstwa_1" data-name="Warstwa 1" xmlns="http://www.w3.org/2000/svg" viewBox="0 0 1721.28 1721.28"><defs><style>.cls-1{fill:#424242;}.cls-2{fill:#2a2a2a;}.cls-3{fill:#a2a2a2;}.cls-4{fill:#a8a8a8;}.cls-5{fill:#ccc;}.cls-6{fill:#4c4c4c;}.cls-7{fill:#494949;}.cls-8{fill:#c8c8c8;}.cls-9{fill:#ededed;}.cls-10{fill:#242424;}.cls-11{fill:#adadad;}.cls-12{fill:#cbcbcb;}.cls-13{fill:#d9d9d9;}.cls-14{fill:#737373;}.cls-15{fill:#989898;}.cls-16{fill:#2d2d2d;}.cls-17{fill:#e7e7e7;}.cls-18{fill:gray;}.cls-19{fill:#7b7b7b;}.cls-20{fill:#979797;}.cls-21{fill:#cecece;}.cls-22{fill:#acacac;}.cls-23{fill:#cdcdcd;}.cls-24{fill:#a3a3a3;}.cls-25{fill:#4e4e4e;}.cls-26{fill:#5d5d5d;}.cls-27{fill:#fff;}.cls-28{fill:#666;}.cls-29{fill:#2c2c2c;}.cls-30{fill:#b6b6b6;}.cls-31{fill:#646464;}.cls-32{fill:#3c3c3c;}.cls-33{fill:#3b3b3b;}.cls-34{fill:#565656;}.cls-35{fill:#c6c6c6;}.cls-36{fill:#707070;}.cls-37{fill:#d1d1d1;}.cls-38{fill:#4d4d4d;}.cls-39{fill:#bcbcbc;}.cls-40{fill:#454545;}.cls-41{fill:#545454;}.cls-42{fill:#3d3d3d;}.cls-43{fill:#afafaf;}.cls-44{fill:#b1b1b1;}.cls-45{fill:#606060;}.cls-46{fill:#343434;}.cls-47{fill:#797979;}.cls-48{fill:#333;}.cls-49{fill:#b9b9b9;}.cls-50{fill:#909090;}.cls-51{fill:#626262;}.cls-52{fill:#bebebe;}.cls-53{fill:#9b9b9b;}.cls-54{fill:#525252;}.cls-55{fill:#6e6e6e;}.cls-56{fill:#6f6f6f;}.cls-57{fill:#313131;}.cls-58{fill:#868686;}.cls-59{fill:#6d6d6d;}.cls-60{fill:#898989;}.cls-61{fill:#a5a5a5;}</style></defs><title>cswotLogo</title><path d="M1158.41,467.05c-.35,6.55-.62,13.1-1,19.64-.84,12.93-2.18,25.8-3.69,38.67-1.6,13.66-3.58,27.26-5.82,40.82q-5.37,32.42-13.31,64.28Q1098.93,774.22,1017,897.57q-130.35,195.34-341.3,298.9a836.83,836.83,0,0,1-179.31,63.73c-22.27,5.18-44.68,9.58-67.28,13-17.07,2.6-34.2,4.8-51.42,6.13-12.44,1-24.88,1.86-37.32,2.79-2.16.79-4.4.19-6.59.37H264.4c-2.21-.18-4.48.41-6.66-.37-9.25-.66-18.5-1.28-27.75-2-11.64-.88-23.25-2.09-34.84-3.5q-17.61-2.16-35.12-5-30.32-4.86-60.15-12A868.62,868.62,0,0,1-69.27,1200,845.73,845.73,0,0,1-256.8,1078.75,859.6,859.6,0,0,1-467.68,812.28a844.53,844.53,0,0,1-70.6-193q-8.18-35-13.43-70.62-3.57-24.45-5.78-49.05c-1.26-14-2.11-28.07-2.79-42.13-.86-3.8.18-7.73-.81-11.52,0-13.06-.75-26.11,0-39.16v-8a97.87,97.87,0,0,1,.85-11.48c.72-11.82,1.26-23.64,2.22-35.43.9-11,2.21-21.95,3.4-32.92,1.26-11.6,3-23.13,4.87-34.66q4.13-26,10-51.75A848.55,848.55,0,0,1-492.69,86.85,859,859,0,0,1-313-181.22,855.46,855.46,0,0,1-24.51-374.43a838.39,838.39,0,0,1,142.68-43.92q29.31-6.24,59-10.51,22.8-3.28,45.72-5.31c11.63-1,23.27-1.93,34.95-2.33,4.15-.14,8.29-.54,12.43-.82,2.85-1,5.79-.21,8.68-.45h31.51c4.21.2,8.44-.44,12.63.38,6.07.3,12.14.64,18.21.9,16.3.69,32.55,2.05,48.78,3.71q23.63,2.4,47.05,6.19a850,850,0,0,1,134.34,33Q741.33-336.79,874.56-217q177.81,160.55,248.3,389.79a821.7,821.7,0,0,1,23.11,95.9q4.58,25.5,7.67,51.2c1.88,15.4,3.17,30.85,4.32,46.32.31,4.14.31,8.3.45,12.46.57,1.57.18,3.2.29,4.8,0,1.87,0,3.75,0,5.62,0,1.33,0,2.65,0,4,.26,2.56-.54,5.2.5,7.72v46.08c-1,1.89-.24,3.94-.5,5.9,0,1.3,0,2.59,0,3.89,0,1.86,0,3.72,0,5.59C1158.59,463.83,1159,465.47,1158.41,467.05Z" transform="translate(562.08 438.27)"/><path class="cls-1" d="M-560.31,406.5c0,4,.19,7.9-.65,11.88a21.45,21.45,0,0,0,0,8.56,56.66,56.66,0,0,1,.78,10.45c.06,2.87.43,5.74-.07,8.6-2.56-1-.73-3.2-1.3-4.75-.25-2.28.55-4.64-.5-6.87v-23c1-1.28.26-2.78.52-4.15a1.22,1.22,0,0,1,.69-.95Z" transform="translate(562.08 438.27)"/><path class="cls-2" d="M286.47,1282.19l26.08,0c.26.21.34.4.23.58s-.2.26-.3.26H286.56c-.28-.15-.39-.33-.32-.52S286.38,1282.19,286.47,1282.19Z" transform="translate(562.08 438.27)"/><path class="cls-3" d="M310.6-437.46l-22.15,0c-.29-.2-.38-.38-.28-.57s.21-.26.31-.26h22.08c.3.17.4.34.32.53S310.69-437.46,310.6-437.46Z" transform="translate(562.08 438.27)"/><path class="cls-4" d="M-561.14,441.11c.25,1.63-.05,3.36.86,4.88,0,3.82.51,7.64,0,11.46-1.15-1.72-.62-3.71-.87-5.58-.19-1.38.29-2.91-.93-4.06v-6.72C-561.76,440.66-561.44,440.65-561.14,441.11Z" transform="translate(562.08 438.27)"/><path class="cls-5" d="M310.6-437.46c0-.27,0-.54,0-.81H323c0,.29,0,.58,0,.88A87.83,87.83,0,0,1,310.6-437.46Z" transform="translate(562.08 438.27)"/><path class="cls-6" d="M286.47,1282.19c0,.27.07.55.09.82H275c-.29-.16-.4-.34-.32-.53s.16-.3.24-.3Z" transform="translate(562.08 438.27)"/><path class="cls-7" d="M312.48,1283a7.71,7.71,0,0,1,.07-.84l10.57,0c.25.2.32.4.22.57s-.2.25-.3.25Z" transform="translate(562.08 438.27)"/><path class="cls-8" d="M288.48-438.27c0,.28,0,.55,0,.83a55.84,55.84,0,0,1-9.59,0c-.3-.2-.39-.39-.29-.58s.21-.28.31-.28Z" transform="translate(562.08 438.27)"/><path class="cls-9" d="M278.88-438.27c0,.29,0,.57,0,.86a42.09,42.09,0,0,1-8.62.09v-.95Z" transform="translate(562.08 438.27)"/><path class="cls-10" d="M1159.2,400.77a2.51,2.51,0,0,1-.92-2.08c0-1.9,0-3.79,0-5.68.33-.35.62-.32.88.08Z" transform="translate(562.08 438.27)"/><path class="cls-11" d="M-562.08,406.53v-7.68l.7-.29a1.28,1.28,0,0,1,.71,1.23c-.25,2.22.63,4.54-.53,6.69l0,0C-561.44,406.93-561.74,407-562.08,406.53Z" transform="translate(562.08 438.27)"/><path class="cls-12" d="M333.63,1282.18a26.44,26.44,0,0,1,6.71,0,8.42,8.42,0,0,0,0,.87H333.6c-.32-.2-.42-.38-.3-.56S333.52,1282.18,333.63,1282.18Z" transform="translate(562.08 438.27)"/><path class="cls-13" d="M257.74,1282.14a26.82,26.82,0,0,1,6.7.07q.51.24.36.51c-.11.19-.21.29-.32.29h-6.72C257.75,1282.72,257.75,1282.43,257.74,1282.14Z" transform="translate(562.08 438.27)"/><path class="cls-14" d="M-561.14,441.11c-.32,0-.63,0-.94,0v-6.72a2.49,2.49,0,0,1,.88,2.07Z" transform="translate(562.08 438.27)"/><path class="cls-15" d="M1158.38,462.26l0-5.72c.21-.52.47-.53.79-.09v5.76C1159,462.62,1158.68,462.64,1158.38,462.26Z" transform="translate(562.08 438.27)"/><path class="cls-16" d="M1158.35,452.7c0-2-.77-4.09.85-5.85v5.76C1159,453,1158.67,453,1158.35,452.7Z" transform="translate(562.08 438.27)"/><path class="cls-17" d="M-561.39,398.62a.67.67,0,0,0-.69.23v-5.76a3.31,3.31,0,0,1,.83,0C-560.39,394.92-560.12,396.79-561.39,398.62Z" transform="translate(562.08 438.27)"/><path class="cls-18" d="M275,1282.18a3.29,3.29,0,0,1,.08.83h-5.76c-.3-.17-.4-.34-.32-.53s.18-.29.27-.29Z" transform="translate(562.08 438.27)"/><path class="cls-19" d="M323,1283a3.74,3.74,0,0,1,.08-.82h5.72c.28.2.37.39.26.57s-.2.26-.3.26Z" transform="translate(562.08 438.27)"/><path class="cls-20" d="M1158.41,389.16l0-5.72c.3-.37.57-.37.82.05v5.76C1158.88,389.71,1158.62,389.66,1158.41,389.16Z" transform="translate(562.08 438.27)"/><path class="cls-21" d="M1158.38,462.26l.82-.05V467l-.39.06-.4,0Z" transform="translate(562.08 438.27)"/><path class="cls-22" d="M269.23,1282.19a3.77,3.77,0,0,1,0,.82h-4.8c0-.27,0-.54,0-.8A15.7,15.7,0,0,1,269.23,1282.19Z" transform="translate(562.08 438.27)"/><path class="cls-23" d="M1159.2,383.49l-.82-.05,0-4.79a2.11,2.11,0,0,1,.79,0Z" transform="translate(562.08 438.27)"/><path class="cls-24" d="M328.8,1283a3.85,3.85,0,0,1,0-.83h4.79a5.76,5.76,0,0,0,0,.83Z" transform="translate(562.08 438.27)"/><path class="cls-25" d="M-562.08,406.53c.3,0,.6,0,.9-.08-.1,1.66.68,3.49-.9,4.88Z" transform="translate(562.08 438.27)"/><path class="cls-26" d="M1158.35,452.7a6.13,6.13,0,0,1,.85-.09v3.84a2.63,2.63,0,0,1-.79.09Z" transform="translate(562.08 438.27)"/><path class="cls-26" d="M1158.41,389.16a2.63,2.63,0,0,1,.79.09v3.84a3.25,3.25,0,0,1-.88-.08Z" transform="translate(562.08 438.27)"/><path class="cls-11" d="M-561.39,398.62c0-1.86.09-3.72.14-5.58.44-1.9-.26-4,1-5.74.51,3.81-.05,7.62,0,11.44l-.59.32Z" transform="translate(562.08 438.27)"/><path class="cls-27" d="M1152.24,422.05c-.15,20.4-.69,39.27-1.93,58.11q-2.1,32.08-6.65,63.92a845.87,845.87,0,0,1-78.89,254.85A857.47,857.47,0,0,1,692.4,1179.82c-11.2,5.83-22.47,11.51-34,16.72-51,23.16-103.57,42-158.15,55-22.4,5.33-44.93,9.88-67.68,13.42q-27.27,4.26-54.73,6.77-21.51,1.92-43.08,2.86c-20,.9-40,1-60,.43-16.47-.45-32.92-1.34-49.34-2.78a852.07,852.07,0,0,1-277-72.15A839.59,839.59,0,0,1-299,1030.32Q-454.27,877-517.63,667.92a803.66,803.66,0,0,1-20.64-84.71c-3.45-18.38-6.38-36.84-8.65-55.41q-3.26-26.68-4.86-53.5c-1.48-24.29-2-48.59-1.33-72.92.45-16.95,1.31-33.88,2.75-50.78,1.63-19.12,3.82-38.18,6.74-57.15a835.42,835.42,0,0,1,27.89-121.83q61.61-198.07,207-346Q-170.59-314.85,15.16-381.08a832.44,832.44,0,0,1,113-31.52q26.07-5.36,52.42-9.12c15.51-2.19,31.09-3.85,46.7-5.24,35.12-3.13,70.29-3.6,105.49-2.5,13.1.4,26.2,1.15,39.26,2.47,10.82,1.09,21.67,1.93,32.45,3.31,13.31,1.7,26.61,3.61,39.85,5.85,20.64,3.5,41.1,7.89,61.42,12.95A839,839,0,0,1,680.61-340,859.57,859.57,0,0,1,1059.53,37a842.07,842.07,0,0,1,70.14,191.68q7.42,31.75,12.43,64,3.89,24.89,6.25,50c1,10.82,1.62,21.69,2.37,32.54C1151.82,391.26,1152,407.41,1152.24,422.05Z" transform="translate(562.08 438.27)"/><path class="cls-25" d="M-560.88,399.06a1.88,1.88,0,0,1,.59-.32,33,33,0,0,1,0,7.76h-.44l-.45,0C-561.09,404-561,401.53-560.88,399.06Z" transform="translate(562.08 438.27)"/><path d="M298.42-374.58c18.75.21,36.5.57,54.22,1.82,17.55,1.23,35.05,2.92,52.49,5.32q229.71,31.59,407.15,180.82Q938.73-80.53,1012.71,67.3a784,784,0,0,1,60.23,162.29q8.5,34,14,68.54c2.63,16.58,4.66,33.24,6.24,50a790.89,790.89,0,0,1,3.36,93q-.54,22.79-2.37,45.52c-1.11,13.72-2.51,27.39-4.31,41q-4.35,33-11.51,65.61a793,793,0,0,1-50.26,152.67,803.2,803.2,0,0,1-368.3,388A778,778,0,0,1,489,1197.28q-29.55,7.17-59.65,12c-15.32,2.47-30.67,4.63-46.09,6.25-14.47,1.52-29,2.6-43.52,3.37-20.63,1.09-41.26,1.14-61.89.74-15.36-.31-30.68-1.32-46-2.58q-19.85-1.62-39.57-4.3c-16.16-2.17-32.26-4.78-48.23-8.08-8.91-1.85-17.81-3.8-26.69-5.79-58.75-13.15-114.89-33.68-168.84-60.2A792,792,0,0,1-263.48,987Q-396.83,853.6-457.14,674.81a767.22,767.22,0,0,1-26.41-101c-3.27-17.12-6-34.32-8.2-51.61-1.88-15.07-3.25-30.2-4.3-45.36-1.6-23-2-46-1.68-69.07.26-16.95,1.23-33.88,2.58-50.79q1.62-20.33,4.31-40.54,4.05-30.66,10.55-60.92a784.84,784.84,0,0,1,39.46-129.06A794,794,0,0,1-271.56-132.94,797.48,797.48,0,0,1-18.39-308.2a781.26,781.26,0,0,1,147-47.75q28.82-6.32,58-10.51c17.89-2.55,35.85-4.43,53.87-5.84C260.07-373.84,279.74-374.23,298.42-374.58Z" transform="translate(562.08 438.27)"/><path class="cls-27" d="M247.75-18.82c4.36-.28,9-.75,13.55-.84,10.08-.19,20.16-.23,30.24-.27q53.5-.21,107-.33,15.36,0,30.71.65C459-18.25,487-10.49,512.4,5.25c27.13,16.79,46.83,39.86,57.88,70a152,152,0,0,1,8.29,36.85,223.38,223.38,0,0,1,.94,35.46c-2.62,47.3-24.45,100.39-74.28,135.21-13.79,9.63-28.59,16.85-45.07,20.51a125.9,125.9,0,0,1-31.43,3c-8.8-.28-17.6-.28-26.39-.1l-34.55.69c-.64,0-1.28,0-1.92,0-1.67.07-2.08.36-2.16,1.89q-.21,3.58-.21,7.19-.06,17.28-.06,34.56,0,94.06,0,188.14,0,55.92-.06,111.83a48.64,48.64,0,0,0,1.78,13.74,32.75,32.75,0,0,0,7.36,13.31c13.17,14.2,28.81,24.21,48.05,28a87.18,87.18,0,0,0,27.21.94,75,75,0,0,0,14.09-2.74A53.76,53.76,0,0,0,490,683.06c6.82-9.49,11-20.13,13.6-31.47a166.86,166.86,0,0,0,3.58-30.44,274.71,274.71,0,0,0-.4-29.26q-1.05-16-3.36-31.95c-1.88-12.81-4.35-25.52-7.08-38.18-8.51-39.42-20.37-77.85-34.31-115.67-.72-1.94-1.7-3.8-1.84-5.92a1.24,1.24,0,0,1,1.49-1.36c2.17.53,4.33,1.08,6.48,1.72l92.76,27.61,24.35,7.2c1.38.41,2.77.78,4.14,1.22a10.59,10.59,0,0,1,7.49,7.41c1.66,5.51,3.52,10.95,5.17,16.46a570.16,570.16,0,0,1,15.46,63.78,448.16,448.16,0,0,1,6.3,52.83c.67,11.52.9,23,.54,34.54-.86,27.77-4.62,55.09-13.26,81.61s-21.13,51.06-38.95,72.67c-25.22,30.6-57.44,49.79-96.06,58.43a164,164,0,0,1-47.69,3.38,200.55,200.55,0,0,1-55.92-12.62c-25-9.31-47.37-23-68-39.8-2.11-1.72-4.19-3.47-6.33-5.14-2.81-2.21-2.93-2.24-5.41.59-14.94,17.09-33.3,29.25-54.28,37.61A219,219,0,0,1,188,821.4a195.51,195.51,0,0,1-38.29,1.7c-35.85-2-69.1-12.24-99.08-32.25C25.16,773.85,6.32,751-7.25,723.69a228.71,228.71,0,0,1-20.23-62.22c-4.74-26.77-5.54-53.71-4.06-80.8q1-18.23,3.41-36.29c2.4-18.07,5.82-36,9.87-53.73S-9.24,455-4,437.44c.27-.92.58-1.83.83-2.75a3.88,3.88,0,0,1,3.34-2.94c4.69-1,9.37-2,14.05-3l96-20.89,22-4.77c1.24-.27,1.81.29,1.48,1.54q-3,11.34-6.09,22.67Q112.35,483.68,97.05,540.1a277.5,277.5,0,0,0-8.39,46.66c-.54,5.73-1,11.47-1.36,17.22a167.35,167.35,0,0,0,1.12,27.77,197.72,197.72,0,0,0,5.12,27.3c5.81,23.12,20.37,38,42.92,44.88,26.85,8.2,52.46,4.9,76.56-9.55a63.2,63.2,0,0,0,13.47-10.74A48.83,48.83,0,0,0,239.69,656a109.27,109.27,0,0,0,.83-13.87l1.29-147.33q.45-51.6.88-103.18.33-38.4.68-76.79c0-2.24,0-4.47-.1-6.71a1.17,1.17,0,0,0-1.2-1.22c-1.28-.05-2.56-.07-3.83-.07H196c-1.28,0-2.56,0-3.84,0-1.13,0-1.83-.39-1.82-1.63,0-.8,0-1.6,0-2.4V201c0-.64,0-1.28,0-1.92.07-2.32.25-2.52,2.4-2.58,1.12,0,2.24,0,3.36,0h41.76c1.28,0,2.56,0,3.84-.06a1.46,1.46,0,0,0,1.46-1.55l.12-2.88c.81-21.74,1-43.5,1.36-65.25q1.08-71,2.44-142C247.1-16.34,246.82-17.5,247.75-18.82Z" transform="translate(562.08 438.27)"/><path class="cls-27" d="M661.88,938.45c-5.93-1.08-12-1.57-17.9-2.69.38-1.91,1.42-3,2.2-4.13q11.91-18,23.87-36c.88-1.33,1.73-2.69,2.62-4,.4-.6.51-1.18-.16-1.61s-1.15.22-1.53.65c-.73.84-1.38,1.76-2.07,2.64l-10.63,13.61c-.69.88-1.36,1.78-2.08,2.63-.88,1-1.56.95-1.94-.26-1.35-4.27-2.65-8.54-4-12.81A4.32,4.32,0,0,0,649,894c-.17-.12-.73,0-.78.1a5.09,5.09,0,0,0-.49,1.77c-.19,5.44-.5,10.87-.45,16.31a26.51,26.51,0,0,1-6.11,17.73Q625,949.54,608.83,969.19c-3.08,3.77-7,6.55-10.85,9.37a.86.86,0,0,1-1.33-.72c-.06-.64-.06-1.28-.12-1.91-.57-5.6,1.5-9.66,6.83-11.86.44-.18.84-.47,1.27-.67a1.32,1.32,0,0,0,.73-1.59c-.14-.78-.43-1.53-.56-2.32a34.14,34.14,0,0,1-.61-4.26c-.19-4.34,1.16-6.2,5.45-7a38,38,0,0,0,7.84-2.09,1.62,1.62,0,0,0,1.09-2.24c-1.14-3.69-2.61-7-5.81-9.67-7.62-6.25-6.76-16.05-3.07-22.2,3-4.94,8.15-6.74,14.22-5,1.22.34,2.36,1,3.58,1.34,1.66.48,3.27,1.4,5.36.76a35.39,35.39,0,0,0-5.15-8.48,21.23,21.23,0,0,1-3-4.88,17.19,17.19,0,0,1-1.2-6.08c-.08-4.36.83-8.58,1.68-12.81.56-2.79,2.5-4.42,5-5.43a12.18,12.18,0,0,1,8.45-.6c2.43.76,4.84,1.62,7.25,2.47,1,.37,2,1.07,3.31.67a76.34,76.34,0,0,0,2.16-14.58,28.21,28.21,0,0,1,1.7-8.91c2.25-5.92,6-7.83,12.08-6.13.31.09.62.17.92.28,1.18.43,2.4,1.31,3.54,1.22,1.49-.12,2-1.88,2.9-3,1.64-2,3.15-4,4.76-6a24.06,24.06,0,0,1,6.83-6c4.44-2.49,8.39-1.58,11.2,2.68a28.61,28.61,0,0,1,2.32,4.71,2.73,2.73,0,0,0,2.55,1.82c2.83.21,5.67.44,8.42.66.48,1.62-.41,2.71-.83,3.86-1.54,4.2-3.23,8.34-4.81,12.52-.77,2-.17,3,1.93,3.2a24,24,0,0,0,2.4,0,25,25,0,0,1,2.87.09,3,3,0,0,1,2.74,2.85,8.49,8.49,0,0,1-.67,4.21,20,20,0,0,1-3.93,6c-3.59,3.87-7.24,7.69-10.85,11.54-.52.56-1,1.16-1.45,1.67.42,1.23,1.33,1,2.05,1,1.6,0,3.21-.09,4.8,0,4.62.34,6.38,3.18,4.23,7.2-2.71,5.1-5.92,9.87-10.52,13.54a98.82,98.82,0,0,1-9.9,6.76q-8.16,5-16.29,10.13c-.92.58-2,1-2.53,2.19,2.27,1.28,4.84,1.65,7.23,2.5a14.81,14.81,0,0,1,5.13,2.52,4.74,4.74,0,0,1,1.36,6,14.22,14.22,0,0,1-3.07,4.25,40.84,40.84,0,0,1-21.5,11.87c-3.59.75-7.24,1.24-10.87,1.78a12.52,12.52,0,0,0-4.88,1.87c-2.83,1.78-2.74,1.83-1.31,4.43a19.48,19.48,0,0,1,1,2.17c1.23,3.09.86,4.59-1.83,6.63a42.59,42.59,0,0,1-4,2.57c-3.14,1.9-6.3,3.78-9.45,5.66a4.85,4.85,0,0,1-1.44,1.32c-.24.26-.21.28.18.12.59-.25-.23-.18.44-.19.91-.21,1.9.36,2.7-.42a54,54,0,0,0,10.43-3.44,29.22,29.22,0,0,0,13-10.26c2.49-3.62,6-6.2,9.45-8.75,3.11-2.29,6.24-2.1,9.33,0,1.69,1.18,3.36,2.4,5.14,3.68a87,87,0,0,0,12.84-9.24c5.47-4.92,11-9.78,16.37-14.79a110.7,110.7,0,0,1,25.56-17.66,8.76,8.76,0,0,1,2.14-1c1.69-.29,3.75-1.48,5-.28s.09,3.28-.43,4.9a27.73,27.73,0,0,1-3.8,7.17c-1.53,2.24-3.11,4.46-4.6,6.73a18.09,18.09,0,0,0-3.07,6.91c1.72.88,3.22,0,4.67-.51a26.76,26.76,0,0,0,4.74-2.26c7.66-4.64,15.73-8.52,23.62-12.71a24.84,24.84,0,0,1,11.08-2.72c3.76-.11,5.28,1.35,5.38,5.11.07,2.39-.16,4.79-.23,7.19,0,1.34.26,1.7,1.64,1.71,3.68,0,7.36,0,11,0a14.55,14.55,0,0,1,5.19.7,5.07,5.07,0,0,1,3.52,4.16c.7,4.26.28,8.27-2.43,11.84a57,57,0,0,1-6.8,7.42q-4.07,3.72-8.24,7.34c-3.8,3.28-6.46,7.06-6,12.41a6.88,6.88,0,0,1-1.79,4.83,18,18,0,0,1-6.8,5.17,175.08,175.08,0,0,1-19.7,7.44c-2,.65-4,1.21-5.87,2a6.63,6.63,0,0,0-4.22,7.3c.15,1.43.39,2.85.49,4.29a11.42,11.42,0,0,1-4.82,10.39,26.65,26.65,0,0,1-5,2.87,79.66,79.66,0,0,1-15.95,5c-5,1.11-9.14-.34-12.86-3.52-1.33-1.14-2.49-2.47-3.73-3.72a13.21,13.21,0,0,0-13.17-3.75c-3.27.77-5.48,2.44-6.31,5.76a27.93,27.93,0,0,1-3.38,7.9c-4.43,7.32-11.57,9.55-19.39,6a22.82,22.82,0,0,1-12.22-12.87c-1-2.52-1.75-5.14-2.64-7.7a24,24,0,0,0-1.24-3.11,2.63,2.63,0,0,0-3.2-1.47c-1.09.21-2.15.62-3.25.81a14.21,14.21,0,0,1-11.4-2.37,116.49,116.49,0,0,1-13-11.76c.22-1.38,1.21-1.14,1.89-1.27,7.83-1.54,15.66-3.11,23.52-4.54,8.17-1.48,16.39-2.69,24.55-4.25a45.14,45.14,0,0,1,19,.69c7.15,1.67,14.32,3.27,21.49,4.86,1.4.31,2.84.44,4.26.65,1,.19,1.91.35,1.09-1.15-6.12-3.34-12.55-6.11-19-9.88,3.15-1.47,6.11-1.77,8.93-2.43,10.41-2.44,20.85-4.73,31.27-7.09.94-.21,1.84-.54,2.76-.82.92-.7,2.15-.14,3.09-.77a.66.66,0,0,0,.74-.17c.54-1.38-.31-1.25-1.19-1.09l-3.57.3c-1.62.79-3.45-.08-5.08.68-4.13.38-8.26.8-12.4,1.15-1.55.13-2-.44-1.61-2a48.21,48.21,0,0,1,3.11-8.54c1-2.33,2.06-4.67,3-7a21.18,21.18,0,0,0,.71-3.12c-1.22-.75-1.63.2-2.09.66-5.56,5.52-11.24,10.93-16.58,16.66a25.4,25.4,0,0,1-16.71,8.29c-11.28,1.2-22.52,2.84-33.77,4.29-7.77,1-15.53,2.08-23.31,3a66.59,66.59,0,0,1-7.47,0c-1-2,.92-3.17.72-4.79-.65-1-1.37-.18-2,0-2.74.87-5.45,1.82-8.18,2.71-.53.18-.88-.22-1.16-.61a1.08,1.08,0,0,1,0-1.33,5,5,0,0,1,1-1c9.2-7.31,17-16,24.28-25.13,2.7-3.37,5.55-6.64,8-10.21,2.53-3.75,6-5.53,10.26-6.34,5-1,10-2,15-3,1.25-.26,2.47-.65,3.7-1a14.64,14.64,0,0,1,2.44-1.14C662.94,938.75,662.24,939,661.88,938.45Z" transform="translate(562.08 438.27)"/><path class="cls-27" d="M337.36-197.36q5.4-30.43,10.79-60.88c.67-3.77,1.21-7.58,2-11.32.89-4,.08-3.88,4.44-3.95q12.24-.23,24.47-.38c4.3-.05,8.6,0,12.95,0,.69,1.52.13,2.91-.15,4.24q-10.27,49.24-20.61,98.49-3.92,18.76-7.81,37.53c-.13.63-.17,1.28-.34,1.89a1.79,1.79,0,0,1-1.74,1.37q-1.2,0-2.4.06-18,.13-36,.29c-4.31,0-3.51.2-4.69-3.76-3.3-11-6.44-22.07-9.65-33.11l-14.82-51.05c-1.3.25-1.31,1.28-1.56,2.2q-10.94,41.2-21.9,82.41c-.24.92-.46,1.86-.76,2.76a1.71,1.71,0,0,1-1.79,1.27c-1,0-1.92,0-2.88,0l-34.54.29c-1,0-1.92,0-2.88,0-1.19,0-1.7-.68-2-1.67-.18-.61-.3-1.24-.44-1.86q-15.76-67.17-31.51-134.34c-1.14-4.86-1.13-4.89,3.83-4.95q16.78-.21,33.58-.36a6.7,6.7,0,0,1,3.59.48c1,4.63,2,9.45,2.95,14.28q5.93,29.61,11.84,59.21c.19.94.48,1.86.72,2.78.35.31.36.76.49,1.15a1,1,0,0,1,.5-1.07c1.57-5.68,3.2-11.34,4.71-17q7.39-28,14.74-56c.24-.93.52-1.84.74-2.77a1.81,1.81,0,0,1,1.69-1.44,18.87,18.87,0,0,1,2.38-.11q17.49-.22,35-.42h1.92a1.73,1.73,0,0,1,1.77,1.31c.8,2.59,1.52,5.2,2.28,7.8q9.65,33.32,19.3,66.61C336.2-196.54,336.77-196.54,337.36-197.36Z" transform="translate(562.08 438.27)"/><path class="cls-27" d="M-298.18,610.11c-7.3-1.85-14.22-4.77-21.09-7.76a175.64,175.64,0,0,1-43.62-26.65c-21.18-17.85-35.09-40.35-42.69-66.87a192.2,192.2,0,0,1-5.92-31c-2.13-18.31-2.38-36.69-2.37-55.08,0-3.52,0-7,.09-10.55,0-1.73.53-2,2-1.36a59.28,59.28,0,0,1,8.8,4.84,183.43,183.43,0,0,1,33,28.43c15.37,16.66,28.1,35.2,39.13,54.95,4.6,8.23,8.86,16.64,12.88,25.17a27.82,27.82,0,0,0,5.12,8.16c.71-2.27-.14-4-.6-5.82a172.88,172.88,0,0,1-4.11-19.69A116.52,116.52,0,0,1-304.79,434a142.9,142.9,0,0,1,16.08-23.81C-282.2,402.3-275,395-268,387.28c2.2,1.25,3.1,3.12,3.81,5.28a244.56,244.56,0,0,1,7.37,27.76,198.81,198.81,0,0,1,3.84,51,178.27,178.27,0,0,1-13.32,59.57,94.15,94.15,0,0,1-19.62,29.88c-.78.79-1.65,1.5-2.48,2.24-1.83.09-1.53-1-1.11-2.08,2.06-7.53,4.1-15.07,6.17-22.6a166.64,166.64,0,0,0,5.09-26.28,106.16,106.16,0,0,0,.11-19.61,4.05,4.05,0,0,0-.86-2.69c-1.11.22-1.31,1.27-1.76,2a95.94,95.94,0,0,0-10.51,28.11,214,214,0,0,0-3.91,30.37c-.3,4.29-.62,8.59-.92,12.86-1.21.22-1.42-.7-1.79-1.31C-300,558.45-302,555-304,551.59a5.69,5.69,0,0,1-.95-1s-.39.2-.39.2a4.48,4.48,0,0,1,.23.39,3,3,0,0,0,.29,2.28q3.62,11.15,7.23,22.3a194.9,194.9,0,0,1,6.78,24.93c.2,1.09.35,2.2.46,3.31,0,.24-.17.51-.37,1-1.61-1.24-2.51-2.93-3.6-4.43-4.52-6.2-8.89-12.5-13.49-18.64-10.09-13.45-21-26.19-33.48-37.5a94.87,94.87,0,0,0-15.16-11.68,31,31,0,0,0-7.18-3.5c-.94,1-.6,1.95-.44,2.83a23.33,23.33,0,0,0,5.51,11c9.05,10.77,18.17,21.47,27.74,31.79,9.37,10.09,19.61,19.25,29.88,28.4,2,1.8,3.95,3.7,5.91,5.56C-295.27,611.49-296.87,610.43-298.18,610.11Z" transform="translate(562.08 438.27)"/><path class="cls-27" d="M476.62-249.46c19.75.8,38,6.31,54.45,17.47a59,59,0,0,1,25.77,39.45,69.9,69.9,0,0,1,.16,23.4,115.64,115.64,0,0,1-11.29,35,66.83,66.83,0,0,1-16.6,21.48,60.51,60.51,0,0,1-38.3,14.3c-12.85.34-25-2.79-36.94-7.17a97.15,97.15,0,0,1-17.67-8.52c-16.54-10.24-25.89-25.15-28.88-44.25-1.66-10.63-.38-21,2.15-31.36a103.59,103.59,0,0,1,9.73-25.43c7-12.67,16.59-22.63,29.91-28.71A62.68,62.68,0,0,1,476.62-249.46Z" transform="translate(562.08 438.27)"/><path class="cls-27" d="M233.28,1119l-25.42-23.46,52.23-56.8c-2.89-3.48-6.29-6.14-9.39-9.11s-6.32-5.88-9.49-8.82l-9.84-9.15-9.49-8.81q-4.75-4.39-9.5-8.8l-9.61-9c7.27-9.07,15.28-17.08,23-25.49,1.73.52,2.67,1.87,3.8,2.91q33,30.45,65.88,60.92c1.41,1.3,2.84,2.59,4.24,3.9.91.84,1.68.63,2.44-.21,1.2-1.29,2.41-2.56,3.61-3.85l61-65.76c1.19-1.28,2.39-2.53,3.76-4L396,977a52.94,52.94,0,0,1-4.72,5.37c-1.6,1.79-3.24,3.54-4.87,5.3l-4.9,5.27-4.88,5.29-4.89,5.28c-1.52,1.65-3.05,3.29-4.57,4.93l-4.88,5.29-4.89,5.28-4.88,5.29-4.9,5.27-4.94,5.39c3.51,4.07,7.52,7.25,11.2,10.75s7.48,7,11.23,10.47l11.25,10.45,11.25,10.46,11.2,10.42c-2,3.08-19.79,22.43-23.47,25.56-1.17-1-2.37-2.08-3.53-3.15L305.88,1049c-.94-.87-1.9-1.72-2.83-2.6s-1.66-.66-2.43.19c-1.08,1.18-2.19,2.33-3.28,3.5L237,1115.18C235.86,1116.35,234.73,1117.47,233.28,1119Z" transform="translate(562.08 438.27)"/><path class="cls-27" d="M121.81-205.18c-1.25-1.84-2.19-3.32-3.23-4.73-4.25-5.77-10-8.34-17.1-7.48a28.76,28.76,0,0,0-12.14,4.15,11.35,11.35,0,0,0-5.57,8c-.77,4.82,1.58,8.56,6.28,9.82a26.34,26.34,0,0,0,9.53.6q13.36-1.35,26.78-2a100.72,100.72,0,0,1,25.3,1.52C169.31-191.69,181.3-179,184-161.11c2.44,16.42-2.8,30.22-14.59,41.66a62.38,62.38,0,0,1-17,11.46A130.59,130.59,0,0,1,108.7-95.86C94.13-94.48,81.61-99,71.27-109.4a57.2,57.2,0,0,1-12.62-19.2,8.92,8.92,0,0,1,1.6-1.09q17.6-6.94,35.21-13.84c2.11-.82,2.16-.79,3.3,1.25a39.68,39.68,0,0,0,4.79,7.15,21.54,21.54,0,0,0,20.69,7.31,31.32,31.32,0,0,0,11.62-4.25,16.67,16.67,0,0,0,7-8.27,12.3,12.3,0,0,0-4.67-15.17A15,15,0,0,0,132-158a54.92,54.92,0,0,0-12-.59c-4,.29-8,.49-12,.88a119.4,119.4,0,0,1-26.32-.23,51.8,51.8,0,0,1-17-4.7C52-169,45.59-179.6,44.62-193.56c-.71-10.18,2.57-19.19,9-27.06a54.21,54.21,0,0,1,16.28-13.22,127.49,127.49,0,0,1,34.58-12.43A74.42,74.42,0,0,1,120.69-248a49,49,0,0,1,10.46,1.25,37.59,37.59,0,0,1,20.56,12.43,56.75,56.75,0,0,1,7.89,12c1,1.9.83,2.17-1.38,3.05q-6.9,2.73-13.82,5.42C137-211,129.52-208.15,121.81-205.18Z" transform="translate(562.08 438.27)"/><path class="cls-27" d="M542.79,943.11a11.29,11.29,0,0,0-3.69,2.18c-14.91,10.77-29.53,21.93-43.46,34-.85.72-1.77,1.36-2.67,2-.09.07-.29,0-.48-.07-.78-.74-.37-1.72-.43-2.6s0-1.92,0-2.88c0-1.11,0-2.23-.12-3.34,0-.24-.34-.52-.58-.68a.92.92,0,0,0-1.24.31,15.21,15.21,0,0,0-1.08,1.58c-1.68,2.9-3.41,5.78-5,8.73a46.83,46.83,0,0,1-14.69,16.83c-8.84,6.07-17.33,12.61-25.92,19a67,67,0,0,1-10.84,6.66A10.8,10.8,0,0,1,435,1018c1.65-2.16,3.28-4.34,4.8-6.59a45.65,45.65,0,0,0,6.17-12.4,11.92,11.92,0,0,1,7.17-7.84c.15-.06.31-.1.46-.15,5.24-1.91,8.82-5.11,8.17-13.51a54.43,54.43,0,0,1,1.47-17.12,51.85,51.85,0,0,1,8-17.31,19,19,0,0,1,3.19-3.56c3.11-2.68,6.26-2.83,9.67-.61a18.86,18.86,0,0,1,4.46,4.32c.87,1.13,1.77,2.25,2.83,3.59a15.85,15.85,0,0,0,10.2-11.13c.89-3.22,1.31-6.57,2-9.86.48-2.34.87-4.72,1.56-7a32.54,32.54,0,0,1,14.11-18.17c6.15-4,9.9-2.93,13.1,3.57,1,2,1.79,4.1,2.72,6.13a1.58,1.58,0,0,0,2.28,1,15.74,15.74,0,0,0,5.81-4.13c2.84-3,5.64-6.12,8.56-9.08a40.37,40.37,0,0,1,5.37-4.76c3.51-2.51,7-2.39,9.38,1.61a8.39,8.39,0,0,0,.5.81c2.08,2.77,3.65,3.32,7.07,2.37a35.93,35.93,0,0,0,3.59-1.32c1.63-.66,3.22-1.43,4.86-2.05a23,23,0,0,1,4.11-1.29c8.73-1.59,13.69,3.65,13.14,11.3a26.42,26.42,0,0,1-1.92,7.38c-1.57,4.18-3,8.42-4.51,12.63a1.52,1.52,0,0,0,.66,2c1.35.85,2.74,1.65,4.06,2.54,3.57,2.38,4.55,5.1,3,9a36.42,36.42,0,0,1-3.11,5.93,41,41,0,0,1-11.7,11.9,194.08,194.08,0,0,1-22.53,13.66c-.74.38-1.6.68-1.45,1.61a2.8,2.8,0,0,0,1.49,2.32,17.31,17.31,0,0,0,3.72.84c5.7.77,11.41,1.47,17.12,2.24,1.68.23,3.34.63,5.26,1A42.56,42.56,0,0,1,570.86,994a96.43,96.43,0,0,1-19.75,5.72q-12.47,2.47-25.08,4.07a31,31,0,0,0-4.7.94,9.27,9.27,0,0,0-7.18,8.06c-1.17,7.15-2.88,8.84-9.82,10.35a16.49,16.49,0,0,1-8-.06c-7.43-2-14.91-1.54-22.3.3-4.65,1.15-9.22,2.58-13.83,3.9s-9.51,2.68-14.45,2.62a.93.93,0,0,1,.15-1.33c10.2-10.61,20.53-21.09,31.95-30.44s23.76-17.31,37.63-22.66c2.38-.92,4.8-1.74,7.2-2.6.34-.33,1-.54,1.07-.83.15-.58-.5-.15-.77-.32-1.78-1.13-4.49,1.28-5.84-1.54,7.2-7.6,15-14.51,22.93-21.38,1.66-1.45,3.24-3,4.86-4.51C545.55,941.45,543.81,942.92,542.79,943.11Z" transform="translate(562.08 438.27)"/><path class="cls-27" d="M585.17,1067.88c-2.32-1.24-4.94-1.28-7.43-1.63-6.33-.86-12.72-1.36-19.07-2.11-4.44-.53-8.86-1.21-13.29-1.84a6.48,6.48,0,0,1-1.19-.42c.15-1.46,1.36-1.83,2.18-2.48,3-2.38,6.09-4.68,9.13-7,.37-.28.79-.62.63-1.17-.26-.89-1-.59-1.54-.46-6.82,1.69-13.75,3.06-20.41,5.23-13,4.23-26.27,5.12-39.8,3.75-5.24-.53-10.52-.82-15.78-1.15-12.13-.78-24.26-1.49-36.39-2.29-2.83-.19-5.63-.64-8.34-1a1.3,1.3,0,0,1,.77-1.74,40.83,40.83,0,0,1,3.79-2q15.42-6.57,30.89-13a15.34,15.34,0,0,1,5.54-1.44c2,0,3,.68,3.31,2.66a30.78,30.78,0,0,1,.08,4.3,26.91,26.91,0,0,0,0,2.84,1.6,1.6,0,0,0,2,1.45,9.88,9.88,0,0,0,3.94-1.68c1-.79,2-1.6,2.93-2.47a203,203,0,0,1,26.07-20.31,22,22,0,0,1,7.37-3.37,7.73,7.73,0,0,1,4.69.44,6.64,6.64,0,0,1,4.14,8.56,35,35,0,0,1-1.75,3.92c-1,2.34-2.09,4.66-3.09,7a3.29,3.29,0,0,0-.56,2.35c2,.58,3.75-.36,5.46-1a49.27,49.27,0,0,0,6.34-3.35c7.85-4.63,15.66-9.3,23.5-14a32,32,0,0,1,10.19-4.05,21.55,21.55,0,0,1,10,.31,2.59,2.59,0,0,1,2,2.34,10,10,0,0,1-1.87,7.7c-1.4,2.13-3.17,4-4.13,6.43a.9.9,0,0,0,.11.79,1.06,1.06,0,0,0,.84.17,5.82,5.82,0,0,0,1.32-.54c2.28-1.15,4.56-2.32,6.83-3.49,3.26-1.69,6.47-3.47,9.78-5.07a32.06,32.06,0,0,1,11.54-3c2.28-.19,3.11.58,3.53,2.91a8.72,8.72,0,0,1-1.32,6c-1,1.8-2,3.61-3,5.44a2.56,2.56,0,0,0-.25,2.54l9.78-1.31c3.32-.46,6.64-1,10-1.4,1.48-.19,1.93.33,2,1.87a8.91,8.91,0,0,1-1.89,6.28c-1.18,1.51-2.41,3-3.56,4.52s-1.05,2.07.44,3.09c1.19.81,2.45,1.51,3.6,2.36a5.65,5.65,0,0,1,2.32,6.33,18.47,18.47,0,0,1-1.48,4,29.09,29.09,0,0,1-12.82,12.56c-3.54,1.82-7.25,3.32-10.94,4.85-2.8,1.16-5.67,2.16-8.52,3.2a4.27,4.27,0,0,0-3.08,3.29,41.69,41.69,0,0,1-1.86,5.94,17.94,17.94,0,0,1-16.86,12,25.06,25.06,0,0,1-12-2.67c-3.87-1.91-7.7-3.9-11.55-5.83-1.49-.74-1.9-.64-2.67.78-1.83,3.37-3.64,6.75-5.39,10.16a39.73,39.73,0,0,1-5.28,8,26.11,26.11,0,0,1-11.76,8,19.52,19.52,0,0,1-4.21.84,5.36,5.36,0,0,1-5.08-2.11,12.25,12.25,0,0,0-5.93-4.6c-2.29-.81-3.4-2.77-3.78-5.15a28.68,28.68,0,0,1-.29-6.21c.17-3.36.31-6.71.42-10.07a6.29,6.29,0,0,0-2.4-5.68c-1.45,2.85-2.85,5.52-4.18,8.23a38,38,0,0,1-3.94,6.57,21,21,0,0,1-11.32,7.62c-8.7,2.35-15.89-2.68-16.51-11.62a19.9,19.9,0,0,1,.79-7.58c.94-2.88,1.69-5.82,2.56-8.73a17,17,0,0,0,.75-5.2,7.27,7.27,0,0,0-.94-3.67c-1.63-2.8-2.53-3-4.93-.67-1.62,1.54-3.16,3.18-4.82,4.67A15.48,15.48,0,0,1,456,1088c-3,1.45-5.76.31-6.93-2.87-.66-1.8-1-3.69-1.54-5.54-.24-.91-.47-1.82-.77-3-1.9.44-3.73.84-5.53,1.29a6.05,6.05,0,0,1-6.76-2.43,46.81,46.81,0,0,1-5.55-10.31c.9-1.16,1.92-.85,2.8-.87,9.12-.19,18.23-.16,27.34.39,8.3.51,16.61,1,24.92,1.1a94,94,0,0,1,27.3,4.62c7.32,2.28,14.66,4.48,22,6.68a27,27,0,0,0,2.82.54c1.11.18,2.59,1.52,2.87-.91l-9.61-5.39a6.88,6.88,0,0,1-1.23-.73,1,1,0,0,1-.26-.8.92.92,0,0,1,.64-.54c1.59-.14,3.19-.28,4.79-.28q14.63,0,29.26,0c7.52,0,15,.36,22.54-.2a2.64,2.64,0,0,1,1.74-.34,3.64,3.64,0,0,0,1.61-.18,4.38,4.38,0,0,1-1.65.14C586.2,1068.41,585.56,1068.5,585.17,1067.88Z" transform="translate(562.08 438.27)"/><path class="cls-27" d="M42.08-121.12c1.08,1.56,1.37,3.47,1.91,5.28a66.79,66.79,0,0,1,2.72,22.26A52.57,52.57,0,0,1,34.83-62.32a45.74,45.74,0,0,1-4.18,4.62A110.91,110.91,0,0,1-13-31.73a51.59,51.59,0,0,1-28.39.67C-53-34-63.35-39-72-47.23-85.49-60-95.34-75.2-100.62-93c-6.27-21.21-2.35-40.61,12.15-57.37a96.25,96.25,0,0,1,46.15-29.67A50.77,50.77,0,0,1-8-178.24a76.61,76.61,0,0,1,18.15,10.6,2.69,2.69,0,0,1,1.11,1.77L-16.33-138c-1.38-1-2.54-1.81-3.72-2.61-8.76-6-17.82-6.42-27.09-1.32-12.37,6.81-17,19.36-13.07,31.79A82.58,82.58,0,0,0-35.48-72.55c7.89,7,16.93,7.57,26.35,3a37.07,37.07,0,0,0,7.58-5C5.14-80.14,7.72-87.34,6.79-95.9a58.61,58.61,0,0,0-2.87-12.59c-.57-1.65-.42-1.92,1.19-2.38Q23.07-116,41-121.16A3.88,3.88,0,0,1,42.08-121.12Z" transform="translate(562.08 438.27)"/><path class="cls-27" d="M-354.5,715.63c6.91,1.38,13.17,2.53,19.39,3.89a355.49,355.49,0,0,1,72.66,23.91A289.38,289.38,0,0,1-155.11,827.5c1.43,1.8,3.11,3.48,3.43,5.93-1.42.59-2.26-.44-3.19-.9-11.18-5.48-22.31-11.09-33.51-16.54-16.94-8.26-34.11-16-52-22-3.34-1.1-6.69-2.16-10-3.21a13.63,13.63,0,0,0-2.79-.66,1.3,1.3,0,0,0-1.5.91,1.65,1.65,0,0,0,.24,1.29c1.78,1.83,3.39,4,5.5,5.32,14.19,8.93,28.13,18.3,43.78,24.66,10.37,4.22,21,7.65,31.57,11.28,5,1.71,10,3.28,15,4.92a3.15,3.15,0,0,1,1.27.57,2.05,2.05,0,0,1,.42,1.26.89.89,0,0,1-.52.68,22.39,22.39,0,0,1-2.84.28c-13.76.48-27.5.57-41.21-.89-22.45-2.39-44-7.93-64-18.53a155.14,155.14,0,0,1-44.55-35.18,274.37,274.37,0,0,1-39.35-58.82A69.43,69.43,0,0,1-354.5,715.63Z" transform="translate(562.08 438.27)"/><path class="cls-27" d="M721.51-132.54c-2.45,5-16.55,27.2-18.94,29.78l-37.3-23.44c-1.74,1-2.32,2.71-3.23,4.15q-25.85,41-51.63,82c-3.54,5.62-2.36,5.17-7.66,1.88-9.51-5.91-19-11.92-28.42-17.88-.94-.6-1.9-1.18-2.82-1.82-1.3-.9-1.37-1.28-.51-2.75.65-1.1,1.36-2.17,2-3.25l50.84-80.77c1-1.63,2-3.25,3-4.78-.14-1.5-1.38-1.79-2.25-2.34q-15.4-9.75-30.84-19.44c-.94-.59-1.91-1.17-2.83-1.79-1.58-1.07-1.67-1.39-.61-3.08q8.29-13.2,16.64-26.36c1-1.49,1.19-1.54,2.65-.63q6.92,4.32,13.81,8.68l94.16,59.28C718.94-134.28,720.23-133.39,721.51-132.54Z" transform="translate(562.08 438.27)"/><path class="cls-27" d="M-240.71,742.73a186,186,0,0,1-24.4-7c-21.47-7.33-41.53-17.41-59.65-31.16-32-24.28-53.65-55.76-65.44-94.08A242.51,242.51,0,0,1-399,569.35c-.19-1.58-.44-3.15-.7-5.05,1.87,0,3.07,1,4.34,1.73a371.23,371.23,0,0,1,64.66,45.4c30.7,26.87,56.21,58.1,77.8,92.62q7.77,12.41,14.78,25.24c.61,1.11,1.12,2.28,1.67,3.42.33,1.17-.23,1.46-1.26,1.28-3.9-3.54-7.82-7-11.69-10.62-9.63-8.88-19.39-17.62-29.68-25.73C-292.32,687.23-306.27,678-321.62,671a32.18,32.18,0,0,0-4-1.51c-.66-.19-1.13.38-1.56.88s-.15.87,0,1.29a1.55,1.55,0,0,0,.25.41c3.62,4.67,7.19,9.35,11.89,13.08,8.14,6.44,16.09,13.12,24.19,19.61,12.23,9.8,25.18,18.57,38.28,27.14,4,2.62,7.94,5.37,11.87,8.09a9.54,9.54,0,0,1,1.32,1.37C-239.21,742.43-239.54,743-240.71,742.73Z" transform="translate(562.08 438.27)"/><path class="cls-27" d="M33.45,988.4c-.11,1.4-1.07,1.78-1.8,2.3a59,59,0,0,1-14,7.18,156.37,156.37,0,0,1-28.2,7.5,215.22,215.22,0,0,1-45.83,3.25,171.43,171.43,0,0,1-82.79-24.25,209.73,209.73,0,0,1-41.55-32.79c0-1.21.8-1.42,1.49-1.78,10.43-5.4,21.56-8.8,33-11.33a162.05,162.05,0,0,1,41.43-3.75,216.31,216.31,0,0,1,49.57,8c23,6.36,44.87,15.72,66.1,26.58,6,3.05,11.85,6.28,17.75,9.46,1.11.59,2.37,1.06,2.88,2.39a1.42,1.42,0,0,1,.13.89.79.79,0,0,1-.66.41c-3.66-.35-7.32-.68-11-1.15-11.42-1.45-22.84-2.83-34.3-3.86a281.78,281.78,0,0,0-34-1.47c-4.95.15-9.89.58-14.84.91A2.27,2.27,0,0,0-65.37,979a2.27,2.27,0,0,0,.42,1.27c.15.23.53.31.82.45a94.39,94.39,0,0,0,24.59,7.7,178.79,178.79,0,0,0,28.67,2.1q19.42,0,38.78-1.91A23.32,23.32,0,0,1,33.45,988.4Z" transform="translate(562.08 438.27)"/><path class="cls-27" d="M-192.95,611.8a310.38,310.38,0,0,1,25.45,46.3,264.29,264.29,0,0,1,17.7,55.06c3.82,19.56,5.36,39.27,3.33,59.15a96.52,96.52,0,0,1-2.23,11.75c-1,4.36-2.35,8.63-3.33,13a18.3,18.3,0,0,1-3.27,6.32c-.13.19-.55.22-.84.24s-.52-.23-.57-.62c-.72-5.87-1.42-11.74-2.2-17.6-1.64-12.36-3.58-24.66-7.66-36.51a86.32,86.32,0,0,0-5.89-13.61,1,1,0,0,0-.75-.39c-.25,0-.63.31-.66.53-.48,3-1.08,6-1.31,9a92.81,92.81,0,0,0,3.37,32.26,223.21,223.21,0,0,0,7.6,22.19c.47,1.18,1,2.35,1.41,3.56a1.65,1.65,0,0,1,0,1.29c-.49.72-1.13.13-1.66-.09a14.35,14.35,0,0,1-1.67-.92c-26.6-15.58-43.63-38.4-51.24-68.2-3.4-13.33-3.57-26.82-1.47-40.44,2.67-17.29,7.46-34,13.29-50.41,3.52-9.93,7.37-19.74,11.06-29.61A3.74,3.74,0,0,1-192.95,611.8Z" transform="translate(562.08 438.27)"/><path class="cls-27" d="M739.51,881.53c.12-2.27,1-4.33,1.72-6.45,4.36-13.18,8.74-26.36,13-39.56a23.59,23.59,0,0,1,8.9-12.12c10.36-7.49,20.63-15.11,30.88-22.74,1-.75,3.24-1.36,2.22-3-.83-1.31-2.27.33-3.28.87-9.47,5-18.89,10-28.33,15.07a2.61,2.61,0,0,1-1.11.66,1.22,1.22,0,0,1-.84.26,1.88,1.88,0,0,1-.19-2.08q4.63-14.61,9.26-29.22c.43-1.36.87-2.73,1.24-4.11a.91.91,0,0,0-.3-.81.94.94,0,0,0-.85.25c-.59.75-1.11,1.55-1.62,2.35-1.38,2.15-2.74,4.31-4.09,6.43-1.17-.41-1.41-1.38-1.82-2.23-1.48-3-3-6-4.49-9-.19-.39-.44-.93-1-.58a1.12,1.12,0,0,0-.44,1.22c.64,4.92,1.29,9.83,1.9,14.74.25,2.06.43,4.14.58,6.21a25.39,25.39,0,0,1-1.77,11.23Q745,845.07,731.15,881.31a28.18,28.18,0,0,1-4,7.47c-1.21-.74-.76-1.78-.94-2.61a26.76,26.76,0,0,1-.39-2.85c-.57-5.4-1.16-10.8-1.66-16.21a13.78,13.78,0,0,1,2.61-10c3.19-4.23,2-7.85-.47-10.93-.71-.86-1.48-1.68-2.21-2.53-6.52-7.67-8.42-16.67-7.51-26.44.35-3.78,2.5-6,6.21-7a25.74,25.74,0,0,1,8.11-.42c2.31.16,3.49-.83,4.4-2.79a13.37,13.37,0,0,0,.47-10.71,48.74,48.74,0,0,0-2.62-5.63c-4.7-8.83-3.94-17.57.44-26.19,2.33-4.56,5.4-5.77,10.35-4.37,1.84.52,3.62,1.24,5.44,1.84a3.36,3.36,0,0,0,2.6.18A99.75,99.75,0,0,0,757,746c.53-2.33,1.24-4.62,2-6.89a8.17,8.17,0,0,1,2.75-3.86,6.27,6.27,0,0,1,5.91-.95c3.23,1,5.62-.37,7.53-2.82,1.18-1.5,2.15-3.17,3.24-4.75a43,43,0,0,1,5.43-6.68c5-4.84,14-3.7,16,4.94.53,2.33.82,4.72,1.21,7.08.11.63.14,1.28.25,1.9.63,3.6,1.07,4,4.62,4a20.54,20.54,0,0,1,5.25.29c2.73.69,3.81,1.84,4,4.61a13,13,0,0,1-.16,2.86,50.78,50.78,0,0,1-2,8.86A152.1,152.1,0,0,1,803,778.48c-.87,1.64-1.65,3.33-2.58,5.21,2.75.54,4.78-.46,6.7-1.53,2.23-1.23,4.35-2.68,6.49-4.07a23.33,23.33,0,0,1,6.86-3.33c2.93-.74,3.63-.26,3.34,2.57a24.17,24.17,0,0,1-3.24,10.44,60.87,60.87,0,0,1-4.63,6.7,297.38,297.38,0,0,1-25.26,26.91c-2,1.87-4,3.72-5.86,5.67-3,3.05-4,6.45-1.74,10.44,1.67,3,1,5.87-.94,8.5a20.41,20.41,0,0,1-7.52,6.52,54.31,54.31,0,0,0-17.1,13c-3.87,4.26-7.48,8.75-11.19,13.15-1.65,1.95-3.19,4-5.5,5.26C739,883.92,739.12,882.81,739.51,881.53Z" transform="translate(562.08 438.27)"/><path class="cls-27" d="M826.53,874l-13-5.38c.39-1.6,1.66-1.72,2.56-2.19,12.19-6.31,24.43-12.56,36.61-18.89,1.11-.57,3.43-.72,2.67-2.52-.56-1.33-2.31,0-3.46.29-3.08.74-6.11,1.69-9.3,2.6-1-2.59.93-4.77.62-7.09-1.07-.36-1.45.41-1.87,1-4.67,6.71-10.93,11.61-18,15.6-2.91,1.65-5.9,3.2-9,4.59-22.07,10.1-43.82,20.87-65.67,31.45a32.66,32.66,0,0,1-3.48,1.55c-.31.11-.88-.27-1.21-.55a.88.88,0,0,1,0-1.26,3.49,3.49,0,0,1,.32-.35c5.87-5.46,10.82-11.76,16.1-17.77A90.17,90.17,0,0,1,772.78,863c2,1.35,2.66,3.62,4,5.38s2.77,1.91,4-.08a37.76,37.76,0,0,0,1.73-3.42c4.86-9.94,10.92-19.13,17.24-28.18a13.41,13.41,0,0,1,7.59-5.51c3.61-1,6.05.7,6.24,4.42a48.16,48.16,0,0,1-.23,5.75c-.09,1.42-.27,2.84-.41,4.21,1.24.74,1.88-.23,2.55-.74a34.28,34.28,0,0,0,6.76-7.41c4.66-6.3,9.34-12.58,14.13-18.78a83.56,83.56,0,0,1,6.65-7.54,17.18,17.18,0,0,1,11.13-5,1.25,1.25,0,0,1,1.52,1.37c-.06,1.92-.18,3.83-.27,5.75s-.16,3.7-.24,5.5c1.31.3,1.7-.54,2.17-1.11,2.24-2.71,4.39-5.5,6.67-8.18,2-2.31,4-4.55,6.13-6.73a22.7,22.7,0,0,1,5.78-4.23c1-.55,2.1-1.6,3.51-.58a4.58,4.58,0,0,1,2,4.09,15.51,15.51,0,0,1-.35,1.88c-.15.95-.31,1.89-.4,2.85s-.26,2.1.52,2.69c1,.72,1.77-.3,2.52-.81,4.51-3,9-6.13,13.49-9.15.74-.49,1.37-1.42,2.51-1.12.7.65.38,1.46.3,2.19-.19,1.75-.54,3.48-.7,5.22s-1,3.69-.13,5.16,3.18,1.23,4.83,1.5c2.93.49,2.62,1.23,3,3.42a17.34,17.34,0,0,1-3,13.63,66.35,66.35,0,0,1-6.42,7.75c-2.75,2.9-5.47,5.84-8.39,8.57-1.88,1.75-2.9,3.53-2.59,6.23a20.47,20.47,0,0,1-.67,7.6,18,18,0,0,1-10.86,12.56,24.51,24.51,0,0,1-7.37,2c-2.55.23-5.1.4-7.65.64a33.93,33.93,0,0,0-4.27.56,4.31,4.31,0,0,0-3.58,4c-.2,1.9-.18,3.83-.29,5.74-.38,6.73-2.3,12.85-6.81,18-2.8,3.21-6.08,5.11-10.47,4.73a38.1,38.1,0,0,1-6.18-.7c-4-1-6.86-3.29-8.2-7.28a14.09,14.09,0,0,0-3.81-6.54c-.46-.41-.89-.95-1.84-.68-.63,3-.65,6.16-1,9.3a19.54,19.54,0,0,1-10,15.5,17.8,17.8,0,0,1-2.14,1.07c-6.31,2.63-11.91.27-14.36-6.11a22.33,22.33,0,0,1-1.34-6.55c-.34-5.36-.92-6.39-5.69-10.63-1.29,2.63-2.5,5.21-3.82,7.75a33.79,33.79,0,0,1-2.93,4.92c-1.63,2.14-3.64,2.45-5.87.9-1.56-1.08-2.88-2.51-4.35-3.73a1.66,1.66,0,0,0-2.54,0c-.55.57-1.15,1.1-1.69,1.69-2.12,2.3-4.73,2.59-7.48,1.64-2.56-.88-5-2-7.4-3-.3-1.18.45-1.62,1-2.14a22.16,22.16,0,0,1,5.14-3.48c14.54-7.35,29.09-14.67,43.56-22.15a26.33,26.33,0,0,1,13.4-2.9q6,.22,12,.35c2.38.05,4.77,0,7.15,0C826.36,874.71,826.45,874.36,826.53,874Z" transform="translate(562.08 438.27)"/><path class="cls-27" d="M949.93,649.64c1.88-1.53,3.24-2.65,4.61-3.75a27.8,27.8,0,0,1,8.39-4.55,12.51,12.51,0,0,1,3.25-.71c3.36-.24,5.51,1.55,5.88,4.89a17,17,0,0,1-.55,6.65q-1.86,6.45-3.75,12.88c-.59,2-1.17,4-1.82,6-1.07,3.22-1,6.3,1,9.17,2.15,3.15,1.79,6.37.19,9.54a31.24,31.24,0,0,1-2.79,4.47c-2.54,3.49-5.16,6.92-7.77,10.36a78.5,78.5,0,0,1-5,6.41c-3.19,3.44-3.53,6.92-.94,10.85,3.21,4.86,2.92,9.86.59,15.06a35.09,35.09,0,0,1-13.61,15.7,14.52,14.52,0,0,1-8.16,2.36l-5.28-.06c-4.25-.07-7.7,1.71-10.73,4.57-2.55,2.42-3.58,5.29-2.63,8.68a25.54,25.54,0,0,1,.94,7.11,12.91,12.91,0,0,1-6.09,11.32c-7.41,4.88-15.42,5.82-23.08-.32-.37-.3-.74-.6-1.13-.89-4.38-3.18-4.47-3.28-8.87.18a21.12,21.12,0,0,1-15.16,4.78c-2.55-.19-5.09-.4-7.54-.6-.35-1,.24-1.31.71-1.67,10.46-8,19.63-17.38,28.38-27.18,3.31-3.7,6.63-7.39,9.78-11.21a20.71,20.71,0,0,1,8-5.93c4-1.7,7.93-3.4,11.83-5.24,1.8-.85,3.77-1.55,5.43-3.47-3.87-.49-7.26.5-10.63.66-.47-1.3.4-1.94,1-2.65q10.08-13.14,20.19-26.24c.87-1.13,1.67-2.32,2.45-3.52a.73.73,0,0,0-1-1,11.89,11.89,0,0,0-1.85,1.48c-2.83,2.82-5.62,5.68-8.46,8.5a6.83,6.83,0,0,1-2.66,2.16c-1.76-2-.88-5.16-2.58-7.3-1.73,1.42-2,3.22-2.37,4.91a40.34,40.34,0,0,1-8.13,16.65,86.84,86.84,0,0,1-6.65,7.56q-17.82,17.82-35.76,35.52a28.13,28.13,0,0,1-8.58,6,20.91,20.91,0,0,1-2.51.72,15.79,15.79,0,0,1,2.91-6.84c2.76-4.11,5.61-8.17,8.4-12.27,1.35-2,2.73-3.94,4-6a38.25,38.25,0,0,0,5.65-16.16,30.18,30.18,0,0,1,2.19-8.31,13.92,13.92,0,0,1,3.86-5.43c1.49-1.26,3-2.3,5.16-2.13,3.62.3,5.72-1.73,6.81-4.87,1.77-5.13,3.4-10.31,5.08-15.48,3.3-10.18,6.51-20.39,10.52-30.32,1-2.37,2-4.73,3.15-7a18,18,0,0,1,7.21-7.5c1-.58,1.88-.11,1.88,1.11q0,8.86,0,17.75V680a13,13,0,0,0,5.66-5.73c1.58-2.78,3-5.64,4.51-8.47a171.7,171.7,0,0,1,8.57-15c2-3.08,4.32-6,7.53-8,5.47-3.33,4.49-2.62,7.23,1.56C947.74,646,948.69,647.62,949.93,649.64Z" transform="translate(562.08 438.27)"/><path class="cls-27" d="M157.36,1024.58a12.67,12.67,0,0,1-4-3.43c-6.44-6.91-12.83-13.85-19.25-20.77-5.44-5.87-11-11.58-17-16.91a126.13,126.13,0,0,0-18.36-13.84c-.92-.56-1.74-1.42-3-1.35a2.55,2.55,0,0,0,0,2.3,54.87,54.87,0,0,0,8.69,17,98.41,98.41,0,0,0,12.36,13.37c8.58,7.93,17.68,15.26,26.64,22.74,1.7,1.42,3.37,2.88,5.42,4.64-2.37.36-4-.39-5.62-.86-26-7.62-50.24-18.81-71.08-36.53A133.91,133.91,0,0,1,47.81,964a94.21,94.21,0,0,1-15.29-37.42,92.87,92.87,0,0,1,.92-35.74c.34-1.56.67-3.12,1-4.69,1.08-.6,1.8.22,2.54.72,26.25,17.39,52.85,34.27,78.58,52.43a93.74,93.74,0,0,1,16.2,14.2c4.58,5.13,9.12,10.3,13.42,15.67,7.89,9.87,12,21.33,13.75,33.75A47.2,47.2,0,0,1,157.36,1024.58Z" transform="translate(562.08 438.27)"/><path class="cls-27" d="M-265.29,849.58c1.55-1.27,3.35-1.4,5-1.85,17.36-4.66,35-5.53,52.81-3.85,26.9,2.54,51.56,11.77,74.86,25.08a333.45,333.45,0,0,1,40.73,27.87c5.28,4.16,10.47,8.42,15.69,12.65,1.49,1.2,3,2.37,3.66,4.32-.74.84-1.4.15-2.06-.11-10.8-4.39-21.55-8.9-32.41-13.14a183.23,183.23,0,0,0-38.24-10.65c-4.39-.69-8.79-1.56-13.22-1.4-.45.84.07,1.27.49,1.73a29.06,29.06,0,0,0,6.32,5.09A181.6,181.6,0,0,0-93,918.15c5.63,1.16,11.33,2,17,3,1.66.29,3.31.68,5.6,1.15A36.13,36.13,0,0,1-80,925.82c-9.79,2.67-19.82,3.43-29.93,3.29-19.19-.26-37.77-4-56-9.79a228.12,228.12,0,0,1-60.2-29.07,147.61,147.61,0,0,1-27.12-23.52,92.14,92.14,0,0,1-10.54-14.24C-264.31,851.54-264.79,850.54-265.29,849.58Z" transform="translate(562.08 438.27)"/><path class="cls-27" d="M-238.71,694.34c.73-8.12,1.41-16.25,1.53-24.41a180.11,180.11,0,0,0-4.61-43.78c-.24-1-.22-2.16-1.27-3.14a17.47,17.47,0,0,0-3.43,6.74,109.76,109.76,0,0,0-3.42,23.69,193.9,193.9,0,0,0,.42,24.46c.38,4.62.54,9.26.72,13.9a39.27,39.27,0,0,1-.59,9,19.37,19.37,0,0,1-5.1-6,151.29,151.29,0,0,1-10.47-19.93,156.4,156.4,0,0,1-12.19-46.65,198.9,198.9,0,0,1,.95-46.9A182.83,182.83,0,0,1-262.54,532a132.15,132.15,0,0,1,16.72-27.34A19.65,19.65,0,0,1-239.9,500a3.34,3.34,0,0,1,1.25,2.08c5.91,21.74,12.18,43.37,16.88,65.42,4.45,20.88,7.22,41.92,6.2,63.32-1.06,22.25-6.71,43.19-18.28,62.37-1.23,2-2.66,4-4,6C-240.24,697.94-238.64,696-238.71,694.34Z" transform="translate(562.08 438.27)"/><path class="cls-27" d="M74.4,1037.54c2.32,2.57,4.78,3.36,7.14,4.28a120.52,120.52,0,0,0,47.87,8.26c13.43-.42,26.86-1,40.28-1.5,2.54-.1,5.08-.39,7.57-.58.45,1.4-.18,2.36-.65,3.34a32.7,32.7,0,0,1-9.74,11.69,67.23,67.23,0,0,1-26.12,12.62c-12.1,2.88-24.35,3.34-36.71,2.38-23.2-1.79-45.14-8.54-66.58-17.13-22.16-8.88-43.08-20.22-63.33-32.81a37.86,37.86,0,0,1-3.84-2.86c-1.49-1.21-1.45-1.6.23-2.85A57.46,57.46,0,0,1-5.9,1012.25c10.43-2.06,21-2.21,31.54-2.14,19,.12,37.58,3.07,56,7.29,25.54,5.86,50.8,12.81,76.15,19.44,1.78.47,3.85.52,4.7,2.69-.16,1-1,.7-1.48.66-4-.3-8-.69-11.95-1-11-.85-22-1.82-33-2.48-13.1-.78-26.21-1.16-39.29.45C76.17,1037.23,75.58,1037.35,74.4,1037.54Z" transform="translate(562.08 438.27)"/><path class="cls-27" d="M964,374.13c1.17,2.07,2.26,4,3.34,5.91s2.14,3.93,3.32,5.83,1.72,4.08,3.75,5.59a18.28,18.28,0,0,0,2.52-7.33c.58-4.6,1.08-9.21,1.75-13.8.62-4.26,1.37-8.51,2.15-12.76a16.25,16.25,0,0,1,1.92-5.39c1.14-1.91,2.37-3.77,3.56-5.65,2.34-.18,4.16,1.33,6.28,1.89.92.24,1.81.57,2.63.83,1.33-.76,1.64-2.08,2.27-3.16,1.36-2.35,2.66-4.74,4.09-7a15.59,15.59,0,0,1,5.06-5c4.35-2.69,7.75-1.54,9.42,3.22a21.92,21.92,0,0,1,1.09,4.66c.41,3.33.65,6.68.94,10,.08,1,0,1.93.17,2.88.37,2.68,1.47,4.95,4.12,6,3.45,1.4,4.12,4.2,3.86,7.41a58.7,58.7,0,0,1-1.9,10.85c-1.17,4.32-2.38,8.62-3.59,12.93-.25.92-.61,1.82-.81,2.75a3.29,3.29,0,0,0,1.82,4c1.57.78,3.25,1.33,4.84,2.08a6.33,6.33,0,0,1,4,6.49c-.38,7.29-2,14.24-6,20.44a23.58,23.58,0,0,1-8.83,7.93c-1.41.75-2.83,1.5-4.16,2.38a16.87,16.87,0,0,0-7.08,9.91,4.86,4.86,0,0,0,.72,4.52,24.51,24.51,0,0,1,1.85,2.79c4.08,7.27,2.82,15.33-3.35,20.94a24.27,24.27,0,0,1-14.78,6.12c-1.27.1-2.56,0-3.84.05-3.42.11-6.09,1.69-6.75,5-1.16,6-5,9.38-10,12a39.49,39.49,0,0,0-5.44,3.9c-1.4,1.07-2.7,2.26-4.05,3.39a1.59,1.59,0,0,1-2.14.29,1.83,1.83,0,0,1-.58-2.5c5.6-13.93,10.84-28,17.07-41.67a24.3,24.3,0,0,1,7.66-9.64c1.79-1.35,3.57-2.7,5.33-4.1.58-.46,1.42-.77,1.4-2-2.37-.68-4.91.57-7.4-.2.48-2.88,1.83-5.26,2.77-7.78,1.33-3.59,2.83-7.12,4.25-10.68.25-.64.25-1.47-.39-1.68a6.2,6.2,0,0,1-4.36-5.21c0-.19-.5-.43-.73-.4a1,1,0,0,0-.68.57,11.58,11.58,0,0,0-.25,2.35,56.35,56.35,0,0,1-5.64,25.52c-5.72,12.14-11.5,24.25-18,36-.73,1.33-1.21,2.92-3.06,4a19.51,19.51,0,0,1,.31-5.41c.6-3.46,1.15-6.93,1.71-10.4a36.38,36.38,0,0,0-1.19-15.66c-.56-2-1.16-4-1.55-6-.89-4.66.38-8.81,4.31-11.41s4.79-6.11,4.85-10.27a97.59,97.59,0,0,0-1.55-15.73,113.8,113.8,0,0,1-1.36-25.34c.13-1.75.29-3.51.51-5.25C960.65,379.59,960.88,379,964,374.13Z" transform="translate(562.08 438.27)"/><path class="cls-27" d="M-128.86,738a13.82,13.82,0,0,1,1.61,1.15c10.59,10.46,21.15,20.94,30.61,32.45,10.31,12.53,19.2,25.94,25.63,40.9,6.29,14.64,9.41,29.83,8.13,45.81a81.62,81.62,0,0,1-5.39,23.26c-.85,2.18-1.76,4.39-4.11,6.21-.73-4-1.36-7.6-2.05-11.18-2.13-11.16-4.92-22.14-9.54-32.57A75.1,75.1,0,0,0-94.15,826.8c-.92.23-1.06,1-1.28,1.77-3.22,10.83-2.33,21.49,1.3,32a162.83,162.83,0,0,0,10.5,23.1c1,2,2.13,3.93,3.37,6.23a11.54,11.54,0,0,1-6.46-1.51c-10.66-6.13-21.62-11.79-31.62-19a79.28,79.28,0,0,1-16.94-16.18c-9.21-12.07-13.14-25.74-12.47-40.85a96.71,96.71,0,0,1,4.31-23.51c4.75-15.92,9.23-31.92,13.55-48C-129.65,740-129.25,739.11-128.86,738Z" transform="translate(562.08 438.27)"/><path class="cls-27" d="M-250.19,25.31c-7,6.19-12.53,13.6-17.32,21.59-5.86,9.77-10.23,20.22-14.25,30.83-2.6,6.87-5.11,13.77-7.68,20.65-.42,1.13-.94,2.23-1.49,3.54-1.71-2.28-1.7-4.8-2.08-7.1a93.32,93.32,0,0,1-1.21-11.91c-.26-7.66-.5-15.35-.32-23,.64-26.57,10.2-49.8,26.9-70.25a178,178,0,0,1,12.32-13.43A427.7,427.7,0,0,1-212-61.58c4.08-3.09,8.34-5.92,12.57-8.8a6.32,6.32,0,0,1,3.73-1.6,15.63,15.63,0,0,1-.29,5.45C-198.18-54.59-201-42.78-204-31-210.26-7.52-218.2,15.37-229,37.22a210.33,210.33,0,0,1-26.09,41.22,154,154,0,0,1-19.87,20.1c-1.59,1.33-3.22,2.62-4.91,3.83-3.73,2.68-5.66,3.43-5.66,2.64,0-2.17,1.62-3.69,2.62-5.43C-275.66,87-268.29,74.45-262,61.35a205.15,205.15,0,0,0,12.52-32.09c.18-.61.25-1.25.37-1.87C-248.62,26.25-248,25-250.19,25.31Z" transform="translate(562.08 438.27)"/><path class="cls-27" d="M11.77,963.51c-14.86-5.2-28.92-12-41.48-21.57a89.39,89.39,0,0,1-18.6-19.25,64,64,0,0,1-11.77-34.44,102.46,102.46,0,0,1,1.28-22c2.07-12.44,4.3-24.87,6.48-37.3.32-1.85.76-2.13,2.6-1.72a45.23,45.23,0,0,1,8.64,2.82c1,.45,2,.91,3,1.45C-13.13,845.16,6.57,864,19,889.79a97.11,97.11,0,0,1,9.49,39.79,127.37,127.37,0,0,1-3.3,33.26c-1,.12-1.43-.6-1.82-1.3-1.88-3.34-3.81-6.65-5.62-10Q7.27,931.86-3.18,912.18c-3.17-6-7.72-11-11.92-16.19a2,2,0,0,0-3.1.76,12.26,12.26,0,0,0-.34,2.84,61.69,61.69,0,0,0,6.14,29.26A89.71,89.71,0,0,0,.83,948.76c4,4.6,8.13,9,12.2,13.51C13.21,963.29,12.93,963.85,11.77,963.51Z" transform="translate(562.08 438.27)"/><path class="cls-27" d="M-402.25,277.14a4.81,4.81,0,0,1,2.37,2.35q7.17,10.49,14.29,21a154.65,154.65,0,0,0,13.65,17.3c14.9,16.32,24.18,35.49,28.77,57,2.3,10.84,3.11,21.82,3.55,32.84s.68,22.05,1,33.08c0,1.11,0,2.24,0,3.35a.9.9,0,0,1-.37.7c-.54.19-.87-.16-1.06-.64-.41-1-.8-2.09-1.2-3.13-4.36-11.14-8.52-22.37-13.33-33.34a217.43,217.43,0,0,0-14.28-27.63c-.65-1.06-1.06-2.33-2.59-3.13a19.59,19.59,0,0,0-.92,8.2,103,103,0,0,0,7.6,29.09,259.15,259.15,0,0,0,14.34,28.68c1.72,3.06,3.43,6.13,5.12,9.16-.74.91-1.46.48-2.16.18a43.91,43.91,0,0,1-12.2-8.34A166.91,166.91,0,0,1-398.89,390a174.27,174.27,0,0,1-14-46.13c-2.87-18.84-1.34-37.28,5.92-55.06Z" transform="translate(562.08 438.27)"/><path class="cls-27" d="M-325.68,428.17c-.69-1.48.42-2.27.93-3.13q7.29-12.41,14.71-24.71C-302.15,387.17-294.36,374-288,360a72.26,72.26,0,0,0,4.34-10.58c-1.32-.53-1.87.46-2.51.95a101.33,101.33,0,0,0-23.27,25.29A175.12,175.12,0,0,0-325,405.83c-2.31,5.61-4.49,11.28-6.72,16.92-.29.73-.46,1.55-1.64,1.65a155.37,155.37,0,0,1-3.35-31.25c-.18-33.13,13-60.08,37.64-81.72,12.28-10.78,26.51-18.3,41.77-23.93a120.77,120.77,0,0,1,14.49-4.63,4.87,4.87,0,0,1,.23,3.42c-4.26,30.11-12.33,59-26.7,86A159.45,159.45,0,0,1-287.8,400.2a107,107,0,0,1-28.35,24.12C-319.15,426.05-322.21,427.67-325.68,428.17Z" transform="translate(562.08 438.27)"/><path class="cls-27" d="M893.12,551.71q1.33,7.06,2.65,14.12c.25,1.31-.19,1.82-1.45,1.71-1.86-.15-3.69-.78-5.56-.46a1.56,1.56,0,0,0,.85,1.71c6.5,4.44,10.41,10.74,12.58,18.15,1.52,5.21,2.69,10.52,4.09,15.76,2.51,9.42,5.08,18.81,7.6,28.22a28.39,28.39,0,0,1,1.22,8.46c-.44,0-.81,0-1-.13a128.88,128.88,0,0,1-11.25-8.16,13.19,13.19,0,0,1-4.81-7.52c-.24-1.09-.66-2.14-.91-3.23-.3-1.33-1.16-1.73-2.42-1.83-2.87-.22-5.74-.49-8.59-.82a25,25,0,0,1-10-3.05,21.16,21.16,0,0,1-3.49-2.51c-3-2.73-3.58-5.9-1.9-9.56a20.87,20.87,0,0,1,3.62-5,25.27,25.27,0,0,0,3-3.74,4.85,4.85,0,0,0-1.08-6.48A9.91,9.91,0,0,0,872,585c-1.39-.36-2.79-.69-4.19-1-8.35-1.88-11.5-7.64-12.63-14-.68-3.83,1-6.84,4-9.15a40.55,40.55,0,0,1,6.72-3.68c1.43-.71,1.54-1.05.87-2.63-1.32-3.08-2.69-6.15-4-9.22-.58-1.31-1.15-2.63-1.74-3.94a7.58,7.58,0,0,1,1.31-8.88c.22-.24.37-.54.6-.75,4.07-3.8,4.95-8.78,5.16-14,.06-1.43.1-2.87.1-4.31a12.16,12.16,0,0,1,1.29-5.08c2.27-5,6.72-6.78,11.9-5a27.91,27.91,0,0,1,6.6,3.84c2.25,1.52,3,1.5,5.1-.13,1.39-1.08,2.64-2.36,4.11-3.28,3.22-2,5.57-1.5,7.84,1.64a21.88,21.88,0,0,1,3.68,8.27c1.29,5.93,2.51,11.87,3.77,17.81.19.91.07,2,1.23,2.6a10.34,10.34,0,0,0,3.68-4.76c.95-2,1.7-4.13,2.56-6.19a44.89,44.89,0,0,1,2.11-4.81c.75-1.35,1.4-3.39,3.16-3.21,1.58.15,2.28,2.06,3.06,3.44A12.24,12.24,0,0,1,930,525a89.71,89.71,0,0,1-.61,9.56c-1.65,11.71-3.43,23.4-5.19,35.09-.23,1.54-.12,2.73,1.45,3.65a26.48,26.48,0,0,1,4.54,3.51c2,1.89,2.86,4.21,1.81,7-.62,1.63-1.18,3.31-1.92,4.89a67.49,67.49,0,0,0-6.2,25.94c-.1,2.23-.25,4.47-.53,6.68a8.37,8.37,0,0,1-2.73,5.66,20.11,20.11,0,0,1-1-2.1c-3.57-10.76-7.38-21.44-10.5-32.35a23,23,0,0,1-.76-11.34,41.64,41.64,0,0,0,.63-6.09c-2-.14-2.82,2.06-4.21,1.46s-1.49-2.64-2-4.09q-4.29-11.43-8.54-22.88C891.59,549.14,893.21,550.86,893.12,551.71Z" transform="translate(562.08 438.27)"/><path class="cls-27" d="M989.22,572.74c-1.59-.23-3.16-.49-4.75-.68a6.09,6.09,0,0,1-5.29-3.57,8.2,8.2,0,0,0-.93-1.27c-.91,1.21-1.79,2.33-2.62,3.49-7.24,10.14-14.42,20.32-20.73,31.11-7.35,12.56-16.24,24.13-24.46,36.12a7,7,0,0,1-1.24,1,7.67,7.67,0,0,1-1.2-6.84c2.7-10.17,3.66-20.79,7.8-30.6.36-.87.75-1.73,1.17-2.72,2,.33,3.88.66,5.75.94a1.88,1.88,0,0,0,2.37-1.64,17.34,17.34,0,0,0,0-3.81c-.93-8.49-.24-16.93.71-25.35.74-6.58,2.23-8.47,8.54-11.8,2.64,2.26,4,5.68,6.62,8.2,1.6-1.38,1.83-3.34,2.32-5.09,1.29-4.65,1.54-9.46,1.91-14.23a57.48,57.48,0,0,1,3-15,25.23,25.23,0,0,1,8-11.92l6,6.46c1.58-.43,1.11-1.61,1.39-2.42a26.35,26.35,0,0,0,.67-2.79c.68-3.12,1.21-6.28,2.08-9.35a24,24,0,0,1,6.29-11.24l6.49,6.89c2.07-2.73,3.27-5.66,4.83-8.38s3.09-5.57,4.73-8.55c2.09,1.92,3.11,4.3,4.57,6.34.88,1.23,1.21,1.32,2.79.73.89-.33,1.78-.7,2.67-1.06,4-1.65,4-2.35,6.06,2.79,1.86,4.65,1.62,9.43.36,14.14-1,3.85-2.29,7.65-3.63,11.4-.6,1.69-.59,3,.67,4.37a14.35,14.35,0,0,1,2.09,3.2,12.56,12.56,0,0,1-.15,12.38,25.16,25.16,0,0,1-5,6.39c-2.81,2.61-5.72,5.12-8.59,7.66-1.08.95-2.19,1.87-3.3,2.79a1.72,1.72,0,0,0-.41,2.5c1.27,2.21,2.49,4.46,3.65,6.73a18.26,18.26,0,0,1,1.94,6.87,14.48,14.48,0,0,1-5.08,12.39,22,22,0,0,1-10.7,5.08,9.34,9.34,0,0,1-4.74-.35c-2-.63-4-1.27-5.93-1.86-1-.31-2.09-.51-3.75-.9,1.43,2.69,2.57,4.75,3.62,6.86a15.91,15.91,0,0,1,1.57,10.69,14.91,14.91,0,0,1-8.27,10.56c-3.8,1.92-7.46,1.27-10.85-1.12-.91-.63-1.63-1.54-2.52-2.21a13.19,13.19,0,0,0-2.81-1.78c-3.6-1.5-5.45-.37-5.84,3.58-.2,2.07-.07,4.16-.29,6.22-.32,3-1.11,3.77-4.14,4.38a9.6,9.6,0,0,1-2.84.4c-2.76-.32-3.86,1-4.5,3.56-.82,3.28-3.4,4.86-6.7,5.28-.74.1-1.29-.47-1-1.13a42.38,42.38,0,0,1,2.48-5.17c10.17-16.26,20.43-32.47,30.58-48.74,2.46-3.93,5.69-6.3,10.4-6.78a79.29,79.29,0,0,0,8-1.59C990,573.83,990,573.29,989.22,572.74Z" transform="translate(562.08 438.27)"/><path class="cls-27" d="M-301.88,202.91c.09-1.62,1.32-2.3,2.14-3.21,4.84-5.33,9.78-10.56,14.58-15.92a178.09,178.09,0,0,0,17.06-21.92,108,108,0,0,0,7.87-14.25c.31-.68.91-1.35.36-2.17-1.11-.34-1.76.49-2.51,1a102.52,102.52,0,0,0-23.12,20,142.33,142.33,0,0,0-16.81,24.44c-.62,1.12-1.21,2.26-1.86,3.35a1.25,1.25,0,0,1-.78.42c-.39.08-.58-.15-.62-.53-.48-5.57-1.15-11.13-.85-16.74q2.44-46,38.67-74.51A227.86,227.86,0,0,1-248,89.32a519.82,519.82,0,0,1,46.63-25.5l6.62-3.24c.41,2.46-.48,4.39-1.15,6.27-8.85,24.68-18.76,48.89-32.11,71.55a201.54,201.54,0,0,1-21.57,30.48,133.72,133.72,0,0,1-21.35,19.9,87.11,87.11,0,0,1-21.32,11.79c-2.53,1-5.2,1.53-7.82,2.23A10.06,10.06,0,0,1-301.88,202.91Z" transform="translate(562.08 438.27)"/><path class="cls-27" d="M-327.77,215a63.13,63.13,0,0,1-7.7-10A135.52,135.52,0,0,1-354,154.49a166.84,166.84,0,0,1-.05-48.73c3.59-25.67,12.76-49.36,25.24-71.9,1.49-2.71,1.54-2.68,4.31-4.35a126.39,126.39,0,0,1,14.89,34.05A172.73,172.73,0,0,1-304,101.44,296.78,296.78,0,0,1-308.32,164c-2.34,13.71-5.42,27.25-9,40.68-.51,1.94-.78,4-2.62,5.36-.91-.5-.79-1.37-.82-2.12-.13-3-.21-6.08-.32-9.11-.35-9.27-.52-18.55-1.1-27.8a141.21,141.21,0,0,0-5.58-33,6.82,6.82,0,0,0-1.47-3.1c-2.86,2.21-3.91,5.36-4.34,8.72a103.05,103.05,0,0,0-.66,19.63,233.12,233.12,0,0,0,4.13,31.35c.66,3.29,1.27,6.59,1.88,9.88A45.5,45.5,0,0,1-327.77,215Z" transform="translate(562.08 438.27)"/><path class="cls-27" d="M-322,297.06c-2.59-14.32-2.76-28.59.75-42.81a76.49,76.49,0,0,1,15-30.2,109.42,109.42,0,0,1,25.61-23c13.81-8.95,28-17.3,42.07-25.81,2.33-1.4,4.67-2.78,7-4.19a3,3,0,0,1,2.42-.63c-.28,2.17-.55,4.37-.84,6.57a248.48,248.48,0,0,1-16.33,62.86,172.45,172.45,0,0,1-15.34,29.23c-6.84,10.38-15,19.47-25.31,26.57a65.5,65.5,0,0,1-23.93,10.58c-2.29.47-4.59.54-7.32,1.17a12.19,12.19,0,0,1,2.76-4.1c6-7.29,12.1-14.47,18-21.87,7.95-10.05,15-20.7,20.06-32.54a24.38,24.38,0,0,0,2.27-6.46,13,13,0,0,0-4.3,2.37,101,101,0,0,0-23.43,22.47A145.44,145.44,0,0,0-318,292.8c-.69,1.44-1.39,2.87-2.08,4.3A1.22,1.22,0,0,1-322,297.06Z" transform="translate(562.08 438.27)"/><path class="cls-27" d="M887.44,370.8c.09-2.36,1.65-4.1,2.59-6.1a16.89,16.89,0,0,0,1.69-4.45,4.38,4.38,0,0,0-3.5-5.39,13.87,13.87,0,0,0-6.65.21,15.38,15.38,0,0,1-9-.22,12.6,12.6,0,0,1-7.39-6.4c-1.92-3.64-1.73-7.05.81-10.28,1-1.25,2.07-2.43,3.14-3.62s2.37-2.56,3.73-4a76.2,76.2,0,0,0-6.54-8.3c-1.05-1.2-2.09-2.41-3.15-3.61a6.79,6.79,0,0,1-1.13-7.59c.48-1.18,1-2.34,1.55-3.5A17.61,17.61,0,0,0,865,296.79c-.3-1.73-.69-3.45-1-5.17a16.51,16.51,0,0,1,.27-7.59c1.34-4.94,4.1-7.25,9.22-7.46a24.58,24.58,0,0,1,7.56,1c2.4.67,2.48.56,3.88-1.55,1.06-1.6,2-3.3,3.13-4.82,3-3.9,6-4.12,9.72-.8a23.43,23.43,0,0,1,4.69,6c2.17,3.9,4.23,7.87,6.32,11.82.52,1,.95,2,1.49,3,.32.57.86,1.05,1.56.78a1.7,1.7,0,0,0,.94-.92,26,26,0,0,0,.72-3.26c1-5.5,1.92-11,2.9-16.51.21-1.19,1-1.52,2-1a13,13,0,0,1,6.73,8.3,81.46,81.46,0,0,1,2.66,14.58c1,8.74,1.67,17.5,2.08,26.28.13,2.85.18,2.86,3.26,3.64a30.57,30.57,0,0,0,3.73.88c1.92.24,2.71,1.53,3.11,3.16a24.9,24.9,0,0,1,0,10c-.34,2.05-.78,4.08-1.15,6.12a23.94,23.94,0,0,0,0,8.1c1,6.15,2.34,12.24,2.57,18.49,0,1.12,0,2.23,0,3.28-.85.57-1.18-.06-1.53-.53-6.89-9.41-13.73-18.86-20.67-28.23-4.62-6.23-6.67-13.34-7.66-20.89-.18-1.38,0-2.88-1.11-4.36-1.91,2-2,4.93-3.5,6.8-.31.14-.46.26-.6.25a.76.76,0,0,1-.41-.24l-10.53-11.75c-.72-.06-1.23-.71-2-.7a7.61,7.61,0,0,1,.61,2.09c2.39,3.76,4.75,7.54,7.17,11.28,2.69,4.15,5.47,8.24,8.14,12.4.48.74,1.4,1.38,1,2.85-2.36.3-4.85-.17-7.33-.11-1.71.09-3.91-1.91-5,1.14a27.68,27.68,0,0,0,7.25,3.63c1.49.57,3,1,4.52,1.58a25,25,0,0,1,13.26,11.16c3.47,5.92,7.32,11.61,11,17.42a38,38,0,0,1,2.36,4.16c.74,1.57,1.27,3.24,1.88,4.85-.43.22-.71.5-1,.47a85,85,0,0,1-11.72-2.34,10.91,10.91,0,0,1-7.1-5.25c-1.76-3-1.5-3.64-6.08-2.35-2.11.59-4.24,1.48-6.54,1.26-2.94.49-5.84,1.21-8.81,1.53C892.5,379.81,887.74,375.57,887.44,370.8Z" transform="translate(562.08 438.27)"/><path class="cls-27" d="M929.52,166.21c-3.21-.61-5.69-2.89-8.87-3.65,1,3.49,1.18,4.21,3.42,6.61a21.72,21.72,0,0,1,5.81,16.23c-.12,4-.22,8-.35,12Q929,213.7,928.47,230c-.05,1.58.13,3.21-.53,4.72a.87.87,0,0,1-1.5.1,37,37,0,0,1-1.25-4.09,36.68,36.68,0,0,0-9.63-18.43c-.77-.8-1.44-1.71-2.18-2.55-2.67-3-2.78-6.3-.86-9.74a19.7,19.7,0,0,1,1.67-2.9c1.74-2.12,1.22-3.82-.27-5.95-4.23-6-8.22-12.19-12.24-18.34-1.57-2.4-2.93-4.95-4.48-7.36-2.52-3.93-3-8.36-3.41-12.83-.09-1,.63-1.32,1.54-1.39a9.56,9.56,0,0,1,5.47,1.45c1.4.77,2.71,1.7,4.11,2.47a25.92,25.92,0,0,0,3.45,1.64,2.52,2.52,0,0,0,1.81.05c.64-.32.4-1.13.24-1.73-1.4-5.08-2.79-10.16-4.23-15.22-1.22-4.32-2.38-8.63-2.39-13.16s1.25-6.32,5.4-8c1.88-.76,4.52-.42,5.55-2.29.85-1.56.51-3.74.83-5.62a20.36,20.36,0,0,1,4.52-9.91c3.15-3.69,6.87-3.8,10.34-.39a26.05,26.05,0,0,1,3.9,5.43,30,30,0,0,0,2.58,4,6.75,6.75,0,0,0,5.79,2.73c4.25-.15,5.65,1,6.75,5.18a65.63,65.63,0,0,1,1.31,7.54c.46,3.33.8,6.66,1.21,10a12,12,0,0,0,.37,1.88,2.74,2.74,0,0,0,3.23,2.16c1.58-.17,3.16-.58,4.74-.61,3.66,0,5.87,1.44,6.72,4.91,2.2,9,1.53,17.46-4.77,24.84-1.14,1.34-2.22,2.73-3.22,4.17a12.8,12.8,0,0,0-2.24,5.75c-.44,3.39.49,4.94,3.61,6.4a50,50,0,0,1,5.09,2.64c2.42,1.51,3.23,3.8,2.87,6.61a14.54,14.54,0,0,1-1.49,4.53,38.06,38.06,0,0,1-11.39,14c-1.53,1.15-3.07,2.3-4.54,3.53-2.35,2-3.7,4.52-3.23,7.59.52,3.46-.67,6.2-2.61,8.9-3.07,4.26-6,8.64-8.91,12.88-1.34,0-1.38-1-1.46-1.66-.32-2.86-.7-5.72-.78-8.59-.21-7.83-.23-15.67-.41-23.5-.18-7.51.93-14.66,5.76-20.83-1.77-1.24-3,1-4.63.21-.66-1.45-.33-3-.33-4.61q0-18.23,0-36.45c0-1.12,0-2.24,0-3.36,0-1.35-.61-2.57-1.06-2.27-.78.51-.7,1.35-.82,2.11q-1.28,8.78-2.54,17.55C929.81,164.83,929.67,165.45,929.52,166.21Z" transform="translate(562.08 438.27)"/><path class="cls-27" d="M-368.09,244.2A108.24,108.24,0,0,0-362,284c4.4,12.92,11,24.73,19,36.42a23,23,0,0,1-7-.74c-16.56-4.21-28.59-13.71-34.94-29.89a106.3,106.3,0,0,1-7.43-34.5,235.38,235.38,0,0,1,6.38-63.76c1.87-8.08,4.16-16.07,6.28-24.1a41.67,41.67,0,0,1,1.29-4.11c.6-1.56,1.45-1.79,3-1a28.49,28.49,0,0,1,9.58,8.55,105.17,105.17,0,0,1,13.94,25.06,225.77,225.77,0,0,1,10.45,36.84,337,337,0,0,1,6.92,72,22.56,22.56,0,0,1-1.1,8c-.15.39-.27.61-.63.46s-.65-.24-.76-.47c-.55-1.14-1.08-2.31-1.54-3.5-4.48-11.45-8.89-22.93-13.42-34.36a193.74,193.74,0,0,0-12.28-26c-.95-1.65-2-3.27-2.95-4.91Z" transform="translate(562.08 438.27)"/><path class="cls-27" d="M961.34,298.13c3,3.52,3.78,7.61,3.28,12.11a100.85,100.85,0,0,1-2.14,10.31c-2,9.37-3.93,18.75-5.9,28.13a36.67,36.67,0,0,1-3.31,10.23c-1.38-3.44-1.58-6.78-2.23-10-1-4.7-1.66-9.44-2.48-14.16-.08-.47-.22-.94-.28-1.41-.72-5,.07-6.49,4.52-8.82,1.12-.59,2.48-.77,3.44-2.14a112,112,0,0,1-6.85-16.57c-1-3-1.9-6.09-2.79-9.16a22.17,22.17,0,0,1-.75-7.6c.22-3.49,1.69-4.74,5.27-4.69a30.72,30.72,0,0,1,6.11,1.11c1.72.36,2.3-.2,2.16-2.05a76,76,0,0,0-2.24-12.24c-1-4.19-2.22-8.35-3-12.58-1.06-6.06-1-12.11,1.51-17.91a4.46,4.46,0,0,1,1.76-2.46l7.4,3.43c.82-1.58.26-2.93,0-4.23a64.21,64.21,0,0,1-1.55-16.18,29.4,29.4,0,0,1,1.08-6.12,1.25,1.25,0,0,1,1.77-1c2.44.67,4.89,1.31,7.45,2,1.52-6.38,1.7-12.79,3.1-19.08,2.47.39,4.16,1.67,6,2.52a2.62,2.62,0,0,0,3.08-.28c1.48-1.22,2.93-2.48,4.42-3.68a2.32,2.32,0,0,1,3.08,0,11.68,11.68,0,0,1,4.83,6.89,95.53,95.53,0,0,1,1.7,10.89c.12,1.11.22,2.22.26,3.34.12,3.2,1.07,5.54,4.42,7,4.08,1.78,5.6,5.41,5.07,9.9a30.17,30.17,0,0,1-2.69,9.15c-1.94,4.2-4,8.34-6,12.52-.6,1.27-1.54,2.4-1.66,4.08,1.15.74,2.37,1.48,3.53,2.3,1.56,1.11,3.14,2.22,4.6,3.46,4.23,3.6,5.43,8.14,3.76,13.4a28.51,28.51,0,0,1-3.19,6.94,18.54,18.54,0,0,1-14.65,8.79c-1.74.15-3.51,0-5.14,0-.82,1-.17,1.61.38,2.14,1.16,1.1,2.37,2.14,3.54,3.22a39.55,39.55,0,0,1,3.78,3.65,11.41,11.41,0,0,1,2.48,9.43,18.53,18.53,0,0,1-.44,2.36c-1.86,6.26-5.42,11.28-14.82,10.62-1.12-.08-2.22-.31-3.33-.44a7.08,7.08,0,0,0-4.16.88,6,6,0,0,0-2.3,2.4c-.72,1.25.26,2.1.83,3a12.58,12.58,0,0,1,1.67,4.45c.45,2.46.57,4.6-2.25,6.1-2.3,1.22-3.33,3.79-4.32,6.17s-1.86,4.76-2.93,7.08a11.66,11.66,0,0,1-5.87,6c-.9-2.73-.9-2.73-.46-4.59,2-8.4,3.94-16.79,5.93-25.18.77-3.26,1.63-6.51,2.38-9.78a23.47,23.47,0,0,1,4.3-9.51c.78-1,1.4-2.11,2.09-3.17-3.5-2.36-3.51-2.36-2.56-6.45,1.13-4.82,2.44-9.6,3.1-14.52a13.26,13.26,0,0,1,5.49-9.2c1.41-1.06,2.81-2.12,4.16-3.24a11.94,11.94,0,0,0,3.61-4.19c-3.23-.84-6.12.72-9,.31-.86-1-.58-2.19-.58-3.28,0-4.79,0-9.59,0-14.39a10,10,0,0,0-.15-1.89.9.9,0,0,0-.61-.56.92.92,0,0,0-.8.25,7.49,7.49,0,0,0-.58,1.77q-3.33,15.7-6.64,31.41c-.88,4.19-1.8,8.38-2.75,12.85l-4.84-1C961.33,296.6,961,297,961.34,298.13Z" transform="translate(562.08 438.27)"/><path class="cls-27" d="M887.44,370.8c2.25,6.08,6.79,8.72,12.82,7.28a25.52,25.52,0,0,1,5.65-.3c-2,1.21-4.27,1.18-6.38,1.85-1.49.47-3,.85-4.57,1.28.65,3.11,2.24,5.56,3.24,8.24a10.82,10.82,0,0,0,1.21,1.78l7.55-9.44a14.63,14.63,0,0,1,6.41,10.06c.49,2.67.7,5.39,1.08,8.08.08.55-.18,1.41.74,1.5.71.07,1-.58,1.43-1.07l5.82-7.49c1.26.12,1.77,1,2.35,1.73a23.4,23.4,0,0,1,5,13.24c.18,3.5.06,7,.05,10.54,0,4.32,0,8.63,0,12.95a5.14,5.14,0,0,0,.28,1.88c.16.38.78.73,1.19.36,1.28-1.2,2.46-2.49,3.7-3.72a12.14,12.14,0,0,1,4.19-3.14c2.69-1,5,.21,5.14,3a67.43,67.43,0,0,1-.41,10.05c-.51,4.28-1.4,8.51-2.11,12.76-.75,4.45-2.5,8.57-4.17,12.71-.59,1.46-.14,2,1.5,1.92s3.19-.28,4.78-.37c1.28-.08,1.85.36,1.92,1.56a37.48,37.48,0,0,1-.23,8.13q-1.22,7.57-2.47,15.13c-.64,3.78-1.32,7.55-2,11.35-1.09.32-1.28-.67-1.56-1.24-1.11-2.29-2.25-4.59-3.15-7q-5.85-15.45-11.55-31c-.66-1.79-1.26-3.62-1.76-5.46a22,22,0,0,1,0-11.45c-.3-1-.85-.93-1.28-.88-2.72.32-4.08-1.13-5-3.51-1.33-3.58-2.82-7.11-4.24-10.67a3.27,3.27,0,0,0-1.47-2.09c-1.4.89-2.24,2.44-3.3,3.74-1.61,2-1.61,2.05.38,3.76a24.72,24.72,0,0,1,6.5,8.8c1,2.33,1.95,4.72,2.75,7.14q7,20.89,13.81,41.83c1.18,3.64,2.13,7.36,3.14,11.05a13.46,13.46,0,0,1,.15,2.36c-2.15-1.09-4-2-5.74-2.9-2.76-1.47-4.54-3.53-4-6.92.34-2-.24-2.54-2.27-2.67a23.38,23.38,0,0,1-2.38-.22c-2.85-.52-3.85-1.83-3.31-4.73a38.84,38.84,0,0,1,1.68-5.48c.5-1.46,1.44-2.78,1.52-4.72a20.18,20.18,0,0,0-8.79,2.27c-1,.53-1.91,1.16-2.88,1.73-4.57,2.67-9,1.56-13.16-.83-3.08-1.78-3.88-5.72-2.42-9.4a22.52,22.52,0,0,1,3.31-5.26c1.63-2.14,3.29-4.25,4.9-6.32-.8-1.06-1.63-.61-2.28-.39a55.36,55.36,0,0,0-6.26,2.34,10.33,10.33,0,0,1-9.24.09c-1.6-.74-3.17-1.54-4.68-2.43a6,6,0,0,1-3.2-6.83,14.88,14.88,0,0,1,3-7c1.61-2,3.28-3.92,4.92-5.89l2.63-3.18c-2.55-1.4-4.9-2.71-7.28-4a29.19,29.19,0,0,1-5.66-3.57c-3.79-3.3-4.37-6.77-1.67-11a39.37,39.37,0,0,1,3.58-4.49,3.58,3.58,0,0,0,.8-3.53c-.78-3.09-1.42-6.22-2.11-9.33a22.35,22.35,0,0,1-.42-6.21c.27-4.5,2.43-7,6.88-8,1.4-.31,2.84-.44,4.27-.63a2.6,2.6,0,0,0,2.17-1.64c.34-.73.71-1.44,1-2.19.88-2.52,2.44-4.29,5.61-4.57-1.85-1.53-3.41-2.65-4.76-4C886.75,374.75,885.91,372.92,887.44,370.8Z" transform="translate(562.08 438.27)"/><path class="cls-27" d="M829.76,755.85c2.33-7.94,4.62-15.89,7-23.81a94.58,94.58,0,0,1,12.54-26.66c.12-.9.25-1.81-1.18-1.26-1.95,0-2.12-.15-1.75-1.62q2.52-10,5.08-20c1.34-5.26,2.71-10.51,4-15.77a5.73,5.73,0,0,0,.34-3.27c-.05-.15-.16-.4-.24-.4-.3,0-.75,0-.89.14a6.52,6.52,0,0,0-.87,1.65q-2.88,8.37-5.71,16.76a2.63,2.63,0,0,1-1.25,1.76l-2-2.08c-.23.16-.64.29-.66.47-.49,4.12-.86,8.26-1.42,12.38a172.68,172.68,0,0,1-7.6,31.13c-3.56,10.75-7.32,21.45-11,32.17a17,17,0,0,1-.79,1.52,27,27,0,0,1-3.49-9.65,7.38,7.38,0,0,1,2.07-5.7c1.2-1.42,1.42-2.75.16-4.21a5.55,5.55,0,0,1-.53-.8c-2.72-4.77-2.38-6.24,2.33-9.42,1.72-1.16,3.5-2.21,5.52-3.48-1.75-2.6-3.58-4.76-6.83-5.36a18.54,18.54,0,0,1-8.17-3.83,10,10,0,0,1-3.75-10.66,9.59,9.59,0,0,1,7.22-7.55,20.54,20.54,0,0,1,5.65-1,6.89,6.89,0,0,0,3.71-.79.87.87,0,0,0,.16-1.51,19.85,19.85,0,0,0-5.4-3,12.65,12.65,0,0,1-7.54-7.58,50.18,50.18,0,0,1-2.06-6.36c-.78-3.12.41-5.63,2.86-7.6a14.67,14.67,0,0,1,6.57-2.72c1.88-.37,3.79-.63,5.68-.9,4.49-.63,4.51-.62,2.92-5.09a55.7,55.7,0,0,1-2.87-9.62,17.86,17.86,0,0,1-.37-3.32c.13-3.3,1.54-5.88,4.7-7.16a17.08,17.08,0,0,1,5.49-1.56c2.45-.1,3.21-1.48,3.88-3.4.85-2.41,1.82-4.77,2.82-7.12a17,17,0,0,1,3.41-5.17c2.87-3,5.83-3.6,9.56-1.91a19.13,19.13,0,0,1,3.67,2.23,3.87,3.87,0,0,0,3.59.67c2.16-.56,4.33-1.07,6.61-1.63.84,2.49.31,4.9.47,7.25s-.35,4.46.35,6.65c2.28.81,4.34-.37,6.5-.67.47-.06.95-.15,1.42-.19a1.66,1.66,0,0,1,2,1.46,13.58,13.58,0,0,1-.92,9.35c-1.11,2.3-2.43,4.49-3.61,6.75-.73,1.38-1.74,2.64-1.91,4.49,2.48,0,4.68-1,7-1.58,2-.53,2.53-.22,3.28,1.65a12.12,12.12,0,0,1-.63,10.19,42.54,42.54,0,0,1-4.92,7.64c-4.34,5.54-8.75,11-13.1,16.54-.65.83-1.75,1.43-1.66,2.86,1.15.64,2.41.18,3.62.21,1.91,0,3.85-.14,5.75.05,3.89.39,5.29,2.67,3.88,6.37a23.67,23.67,0,0,1-2.25,4.21,39.91,39.91,0,0,1-14.67,13.48c-3.34,1.87-6.61,3.87-9.9,5.84-.65.39-1.24.89-1.92,1.38,1.21,2.44,4.21,2.61,5.34,4.82-3.2,8-12.59,17.61-24.07,24.64C830.1,757.26,829.57,756.9,829.76,755.85Z" transform="translate(562.08 438.27)"/><path class="cls-27" d="M827.75,53.88a30.2,30.2,0,0,1-4.62-8.71c-2.29-6.64-4.49-13.32-7.08-19.84-2.94-7.4-4.07-14.74-.54-22.65-2.26.33-3.17,2.43-5.33,2.64-.87-2-1.74-4-2.62-6-1.68-3.8-3.34-7.6-5-11.38-.36-.79-.54-2.22-1.79-1.71-1.05.43-.42,1.68-.3,2.55.2,1.43.52,2.83.77,4.25.48,2.6.93,3.41-2.54,3.59-1.25.07-2.49.28-3.63.41-.46,1,.14,1.28.72,1.54,6.16,2.71,9.78,7.54,11.49,13.9,2.64,9.88,5.85,19.58,9,29.28a17.88,17.88,0,0,1,.91,3.72c.13,1.35.72,3.27-.84,3.83-1.18.43-1.83-1.45-2.7-2.3-1.94-1.9-3.78-3.9-5.73-5.79a23,23,0,0,0-7.64-4.85c-1.49-.59-2.92-1.3-4.38-1.93-2.85-1.24-4-3.52-4-6.5a28.73,28.73,0,0,1,.26-3.82,3.26,3.26,0,0,0-1.47-3.29,56.46,56.46,0,0,0-8.6-5.19C778.54,13.79,775,12,771.5,10A27.42,27.42,0,0,1,760.49-1a9.32,9.32,0,0,1-.55-1.31c-.05-.13,0-.3.11-.56.46-.82,1.36-.46,2.07-.47,4.32,0,8.64,0,13,0A1,1,0,0,0,776-5a40.33,40.33,0,0,0-5.22-7.44c-1.53-1.62-3-3.28-4.55-4.93a30.45,30.45,0,0,1-4.84-7.12c-2.12-4.37-1.74-6.55,1.75-9.8a22.87,22.87,0,0,1,3-2.39,2.53,2.53,0,0,0,1.16-2.87c-.4-2.36-.74-4.74-1.14-7.1a12.5,12.5,0,0,1,.15-4.76c1-4.51,3.72-6.46,8.32-5.9a12.42,12.42,0,0,1,4.89,1.84c1.51.91,3,1.86,4.52,2.72,2.67,1.51,5.47,2,8.18.24,1.66-1.08,3-.63,4.37.33a16.3,16.3,0,0,1,5,5.1c1.4,2.33,2.76,4.68,4.11,7,.8,1.37,1.56,2.76,2.26,4,1.53.07,2.23-.92,3.12-1.53,1-.72,2-1.54,3.1-2.24a4.9,4.9,0,0,1,6.22.27,16.71,16.71,0,0,1,6.39,9.85c.77,3.61,1,7.31-.54,10.85-1.81,4.12-1.33,8.46-1.21,12.76,0,1.14.83,1.6,1.77,2a9.23,9.23,0,0,0,3.3.42,38.5,38.5,0,0,1,4.3.3c3.64.61,5.41,2.52,5.39,6.17a26.19,26.19,0,0,1-4.06,14.56c-.88,1.33-1.8,2.64-2.65,4a15.22,15.22,0,0,0-2,12.87,15.46,15.46,0,0,1-.16,9.4C830,46.81,829,50,827.75,53.88Z" transform="translate(562.08 438.27)"/><path class="cls-27" d="M866.31,69.71q1.26,10,2.52,20c.41,3.17.91,6.33,1.3,9.5.31,2.5.26,2.5-2.09,3.34-.75.27-1.48.59-2.17.87a2.33,2.33,0,0,0,1.27,2c3.32,2.42,4.82,5.78,5.31,9.79.79,6.5,1.73,13,2.63,19.48.28,2.05.64,4.1.93,6.16.11.79.16,1.63-.86,1.93s-1.47-.33-2-1l-.29-.39c-4.16-5.47-8.34-10.92-12.48-16.41-1.22-1.62-1.18-1.84.2-3.19s2.79-2.64,4.17-4c.74-.71.41-1.42,0-2.14a6.07,6.07,0,0,0-3.12-2.1c-4.19-1.78-7.64-4.64-11-7.55a18.2,18.2,0,0,1-4.68-6c-1.77-3.74-.86-6.54,2.84-8.32a42.25,42.25,0,0,1,5-1.72c2.33-.78,2.45-1.12,1.16-3.34a37.11,37.11,0,0,0-5.36-6.74c-2.2-2.32-4.45-4.6-6.54-7a17.72,17.72,0,0,1-4.74-12.71c.13-3,.38-3.2,3.11-3.86,1.61-.39,3.6.3,4.73-1.55l-2.34-4.14c-1.1-2-2.26-3.87-3.29-5.84a15.48,15.48,0,0,1-1.66-7.89,1.78,1.78,0,0,1,1.59-2c1.57-.28,3.14-.59,4.7-.91s1.75-.7,1.37-2.36c-.93-4-1.91-8.07-2.88-12.14,1.11-1.26,2.68-1.07,4-1.24,2.71-.33,4.86-1.16,5.89-4A7.52,7.52,0,0,1,855.13,12c2.52-2.73,5.57-2.92,8.49-.55A20.37,20.37,0,0,1,868.14,17c1.38,2.33,2.7,4.71,4,7.09a2.3,2.3,0,0,0,2.32,1.32c1.12,0,2.24-.07,3.36,0,5.11.26,7.47,2.55,7.88,7.74a46.91,46.91,0,0,1-.47,10.52c-.39,2.69-.82,5.37-1.23,8,.93,1.09,2.12.75,3.18.79a33.88,33.88,0,0,1,6.18.67c6,1.34,7.63,6,7.28,9.79-.64,7-3.21,13-9.76,16.62a10.3,10.3,0,0,0-1.63,1c-.84.7-2.32,1.26-2.11,2.39.3,1.63,2,1.13,3.23,1.32,1.58.24,3.16.44,4.74.7a5.85,5.85,0,0,1,5,4.53,13.61,13.61,0,0,1-6.71,16.31,56.58,56.58,0,0,1-6.55,2.93,5.79,5.79,0,0,0-4,4.4c.58,1.27,1.93,1.59,2.94,2.32a9,9,0,0,1,3,3,1.76,1.76,0,0,1-.06,2.18c-1.92,2.35-2.31,5.18-2.49,8.09-.12,1.92-.37,3.82-.59,5.73a10.64,10.64,0,0,1-2.73,6,1.81,1.81,0,0,1-1.76.74c-2-6.85-3-13.94-4.18-21-1.78-10.88-3.41-21.78-5.24-32.65-.72-4.32-1-8.56.16-12.83.44-1.62.57-3.09-1.7-3.66a3.37,3.37,0,0,1-2.16-3c-.26-1.42-.52-2.83-.77-4.24-.74-.81.05-2.11-.91-2.85v0c-1.24-.46-1.3.21-1.08,1.14l.27,2.65C866.41,66.31,865.38,68.16,866.31,69.71Z" transform="translate(562.08 438.27)"/><path class="cls-27" d="M829.13,151.36a28.77,28.77,0,0,1,15.9,2.4c10.19,4.58,20.33,9.29,30.15,14.65a4.82,4.82,0,0,1,2.29,1.8c-3.56,1.44-7.09,2.89-10.64,4.28a11.06,11.06,0,0,1-9.27-.45c-2.43-1.21-2.55-1.23-4.37.75a49.88,49.88,0,0,1-11.78,9,21.61,21.61,0,0,1-6.69,2.56c-3.64.72-5.84-.89-6.43-4.58-.37-2.28.31-4.44.65-6.64.4-2.57-.67-3.91-3.26-4.06a7.33,7.33,0,0,0-4.12,1c-2.51,1.41-5,2.77-7.56,4.15a14,14,0,0,1-7.81,1.85c-5-.32-7.85-3.64-7.33-8.64a12.08,12.08,0,0,1,1.08-4.15c.76-1.58,1.38-3.22,2-4.81-.75-1.09-1.9-1.2-2.94-1.5-2.45-.7-4.93-1.33-7.38-2a18,18,0,0,1-3.16-1.12,4.64,4.64,0,0,1-2.78-5.5,1.79,1.79,0,0,1,.1-.47c2-4.15.28-7.36-2.49-10.38a17.63,17.63,0,0,1-3.59-5.62c-1.74-4.59-.41-8.61,3.81-11.1a22.69,22.69,0,0,1,3.51-1.49c1-.39,2.14-.66,3.2-1,3.3-1.09,5.59-3.13,5.91-6.77a5.28,5.28,0,0,1,2.38-3.94,5.57,5.57,0,0,1,4.93-1.09c6,1.4,11.65,3.36,16.6,7.11,1.25,1,2.58,1.8,4.32,3,.23-3.72-.79-6.84-1.11-10S821.93,102,822,98.68c1-1,1.87-.38,2.65,0A31,31,0,0,1,837,108.26a77.94,77.94,0,0,1,6.17,9.7c1.64,2.92,3.23,5.88,5,8.75,2.3,3.79,2.35,3.76,6.39,2.44.6-.2,1.19-.48,1.8-.65,2.86-.76,5,.38,6.06,3.2a12.4,12.4,0,0,1,.31,1.4c2,8.27,6.18,15.35,11.65,21.75.94,1.1,1.87,2.19,2.78,3.3.07.07,0,.3-.13.74a14,14,0,0,1-6.4-.23c-8.86-1.85-17.18-5-23.93-11.3a2.72,2.72,0,0,0-3-.84c-3.78,1.3-7.26.16-10.65-1.39-2.17-1-4.22-2.26-6.39-3.26s-4.24-2.08-7-1.89c3.14,3.2,7.11,4.81,10.14,7.6-.48,1.37-1.74,1.91-2.6,2.82a6.13,6.13,0,0,0-.72.82c-.06.4.08.54.49.36A4.36,4.36,0,0,0,829.13,151.36Z" transform="translate(562.08 438.27)"/><path class="cls-27" d="M867.2,247c-1.57,1.36-3.16,2.69-4.7,4.08-4,3.61-8.72,4.47-13.85,3.72-2.82-.41-4.21-2-4.38-4.84a13.56,13.56,0,0,1,.89-5.63c.89-2.38,1.67-4.79,2.44-7-.9-1.16-1.93-.73-2.81-.75-2.56-.07-5.12,0-7.67,0a16.19,16.19,0,0,1-4.74-.65c-3.06-1-4.12-2.46-3.78-5.71a17.06,17.06,0,0,1,.79-3.74c1.34-3.89,1.74-3.2-1.78-6.37a27.07,27.07,0,0,1-3.25-3.52c-3.66-4.72-3.7-8.54.45-12.84a25.37,25.37,0,0,0,6.51-10.43c.51-1.67,1.15-2,2.92-1.55,2.79.66,5.54,1.48,8.62,2.32,1.47-1.7,1.71-4.14,2.53-6.3,1.22-3.18,2.15-3.59,5.36-2.29A10.85,10.85,0,0,1,855.2,189c1.18,1.51,2.29,3.08,3.52,4.55s2.47,1.4,3.19-.42c.52-1.34.87-2.74,1.41-4.07,1.17-2.86,3.33-3.71,6.15-2.55a12.06,12.06,0,0,1,5.22,4.8A81.4,81.4,0,0,1,881.36,204c1.16,2.62,2.19,5.29,3.5,8.45a29.92,29.92,0,0,0,2.75-5.7,16.76,16.76,0,0,1,2.88-4.94c2.17-2.24,4.68-2.18,6.54.31a15.24,15.24,0,0,1,2,3.78c2.38,6.49,4.08,13.12,3.68,20.12q-.08,1.44-.06,2.88c0,1.05.62,1.46,1.52,1,1.28-.64,2.58-1.27,3.8-2,2.08-1.31,2.5-.86,3.77,1.07a26.84,26.84,0,0,1,2.91,6c1.89,5.46,2.69,11.16,3.71,16.81,0,.23-.22.51-.42.94-5.2-3.13-10.43-6.17-15.55-9.39a26.22,26.22,0,0,1-11.27-13.88c-.41.2-.72.25-.88.43-2.17,2.48-2.17,2.49-4.84.7-4.77-3.21-9.53-6.45-14.3-9.67-1.18-.79-2.37-1.55-3.4-2.22-1.4.24-1.62,1.33-2.09,2.08-1.71,2.71-1.68,2.78,1.28,3.83A68.2,68.2,0,0,1,884.6,234c3.85,2.85,7.59,5.87,11.23,9,6.18,5.3,12.24,10.74,18.53,16.29a11.26,11.26,0,0,1-6.26,2,4.23,4.23,0,0,1-3.74-1.83c-1.11-1.55-2.51-1.76-4.21-1.48s-3.65,1.23-5.55.31c-.31-1.71-.63-3.42-.9-5.13-.22-1.41-.37-2.83-.55-4.19-1.06-.33-1.57.37-2.16.87a45.23,45.23,0,0,0-7.26,7.63,14.68,14.68,0,0,1-6.74,5.18,7.56,7.56,0,0,1-6.47-.55,6,6,0,0,1-3.39-5.38c-.12-2.63.88-5,1.32-7.52C868.78,248.07,869.37,246.76,867.2,247Z" transform="translate(562.08 438.27)"/><path class="cls-27" d="M790.13,59.56A9.65,9.65,0,0,0,791.54,55a13.79,13.79,0,0,1,1.7-5c1.62-2.72,3.82-3.25,6.46-1.57a15.16,15.16,0,0,1,4.81,5.26,46,46,0,0,1,5.29,11.75c.32,1.24.76,2.44,1.18,3.76,2.46-.77,3.77-3,6.11-4.21a13.68,13.68,0,0,1,5.35,5c2.81,4.07,5.47,8.24,8.18,12.39a1.35,1.35,0,0,1-.13,1.75,1.58,1.58,0,0,1-1.75.37c-8.26-2.41-16.79-3.91-24.8-7.24a79.81,79.81,0,0,0-14.63-4.48A55.72,55.72,0,0,0,775,71.41a12.88,12.88,0,0,0-6.16,1.41,9.19,9.19,0,0,0,3.83,1.54l49.91,13.58c1.23.33,2.46.67,3.69,1,.72.21,1,1,.54,1.43a26.78,26.78,0,0,1-3.28,2.76,4.79,4.79,0,0,1-5,.13,4.19,4.19,0,0,0-4.09,0c-1.16.53-2.37,1-3.55,1.45a1.44,1.44,0,0,1-2-.66c-1.12-1.93-2.22-3.88-3.3-5.78-1.29-.19-1.68.84-2.25,1.52a27.08,27.08,0,0,0-4.27,6.9,15.23,15.23,0,0,1-4.66,6,7.6,7.6,0,0,1-7.19,1.52c-3.24-1-4.78-2.92-4.74-6.28,0-.32.11-.64.08-1-.13-1.46,1.35-3-.16-4.38-1.58.53-2.43,1.92-3.52,3-2.82,2.85-5.71,5.6-9.39,7.33-6.21,2.93-9.09,1.31-9.49-5.45-.15-2.54,0-5.09,0-7.45-1.38-.91-2.44-.36-3.46-.1-2.48.62-4.92,1.37-7.39,2a11.88,11.88,0,0,1-2.83.42,4.21,4.21,0,0,1-4.5-3.51,45.06,45.06,0,0,1-.55-5.71A2.43,2.43,0,0,0,739.71,81c-1.59-.74-3.16-1.54-4.7-2.37a10.05,10.05,0,0,1-4.36-4.32c-1.18-2.35-1.11-5,.77-6.62,3.21-2.73,4.36-6.15,4.54-10.16.08-2,.45-2.22,2.27-2.33a22.35,22.35,0,0,1,6.67.46c1.48.36,2,0,2.29-1.59.41-1.87.81-3.75,1.12-5.64a2.23,2.23,0,0,1,2.29-2,10.47,10.47,0,0,1,6.84,1.64c1.75,1.05,3.31,2.48,5.67,3.14.62-1.88,1.2-3.65,1.79-5.42.82-2.47,2.7-3.47,5.14-3.51A9.58,9.58,0,0,1,775.45,44a28.36,28.36,0,0,1,5.31,4.83c1.61,1.78,3.17,3.6,4.74,5.41Z" transform="translate(562.08 438.27)"/><path class="cls-28" d="M517.12,970.17a1.75,1.75,0,0,0,1.91,1.06c1.42-.05,2.83-.22,4.25-.27a7.79,7.79,0,0,1,3.53.21c-.1,1.08-.93.87-1.44,1.09a3.91,3.91,0,0,1-2.71.6c-1.08-1.37-2.59-.5-3.89-.73a6.08,6.08,0,0,1-1.81-.28C516,971.3,516.34,970.67,517.12,970.17Z" transform="translate(562.08 438.27)"/><path class="cls-29" d="M894.05,315.63a10.84,10.84,0,0,1-2.73-3.77c-.2-.37-.31-1,.26-1.2a1.5,1.5,0,0,1,1.26.25,9.22,9.22,0,0,1,2.57,3.33Z" transform="translate(562.08 438.27)"/><path class="cls-30" d="M-238.71,694.34c.06.92.18,1.83.16,2.74a2.53,2.53,0,0,0,.7,2.1c-.22.41-.44.83-.68,1.24-.07.13-.25.34-.33.32-.26-.08-.7-.23-.71-.38C-239.69,698.3-239.78,696.24-238.71,694.34Z" transform="translate(562.08 438.27)"/><path class="cls-31" d="M898.06,343.19a2.85,2.85,0,0,1-.85-.3,1.28,1.28,0,0,1-.55-.74.72.72,0,0,1,.79-.87c1.87.09,3.8-.15,5.56.77-1,.09-2.06.2-3.09.26C899.17,342.35,898.42,342.35,898.06,343.19Z" transform="translate(562.08 438.27)"/><path class="cls-32" d="M542.79,943.11c1.34-1.41,3.06-1.67,5.09-2.09a5,5,0,0,1-3,3.26C544.57,943.22,543.59,943.33,542.79,943.11Z" transform="translate(562.08 438.27)"/><path class="cls-33" d="M893.12,551.71c-1-1.17-.92-2.59-.89-4a.8.8,0,0,1,.52-.59,1.07,1.07,0,0,1,.79.32,2.28,2.28,0,0,1,.67,2.13C893.29,550,893.53,551,893.12,551.71Z" transform="translate(562.08 438.27)"/><path class="cls-34" d="M539,1076.72a3.42,3.42,0,0,1,2.35,1.22c-2,.91-2,.91-5.22-.31C537,1077.12,538.29,1077.91,539,1076.72Z" transform="translate(562.08 438.27)"/><path class="cls-35" d="M-237.74,734l1.26-1.28c1.07.73,1.38,1.93,1.88,3a.75.75,0,0,1-.12,1.1A6.36,6.36,0,0,1-237.74,734Z" transform="translate(562.08 438.27)"/><path class="cls-36" d="M698.41,998.84a2.25,2.25,0,0,1,2.49,1.66,3.28,3.28,0,0,1-3.58-.51C697.71,999.63,698.37,999.52,698.41,998.84Z" transform="translate(562.08 438.27)"/><path class="cls-37" d="M-298.18,610.11c1.06-.35,2.47.23,3.1-1.2a4.57,4.57,0,0,1,1.14.74c.44.5.63,1.17-.3,1.34A4,4,0,0,1-298.18,610.11Z" transform="translate(562.08 438.27)"/><path class="cls-38" d="M661.88,938.45a3.32,3.32,0,0,1,2.69.31,3.4,3.4,0,0,1-3.63,1.48Z" transform="translate(562.08 438.27)"/><path class="cls-39" d="M-322,297.06l1.86,0a13.1,13.1,0,0,1-.49,1.79,1.08,1.08,0,0,1-.77.5c-.65.07-.63-.53-.67-.93A8.26,8.26,0,0,1-322,297.06Z" transform="translate(562.08 438.27)"/><path class="cls-40" d="M623.57,980.67l2-.86,1.88.83a4,4,0,0,1-2.78,1.1C623.6,982.06,623.37,981.58,623.57,980.67Z" transform="translate(562.08 438.27)"/><path class="cls-41" d="M867.2,247a4.5,4.5,0,0,1,.87-1c.71-.44,1.18-.15,1.24.67a2.76,2.76,0,0,1-.86,2.56C868.12,248.45,868.34,247.35,867.2,247Z" transform="translate(562.08 438.27)"/><path class="cls-42" d="M-304.94,549.64l.89,2-.82,1.92a3.7,3.7,0,0,1-1.11-2.72C-306.32,549.79-305.87,549.49-304.94,549.64Z" transform="translate(562.08 438.27)"/><path class="cls-43" d="M-289.54,561c.36.71.09,1.73,1.11,2.08a7.2,7.2,0,0,1-1.14,1.35.59.59,0,0,1-.95-.48A3.42,3.42,0,0,1-289.54,561Z" transform="translate(562.08 438.27)"/><path class="cls-33" d="M866.31,69.71a7.44,7.44,0,0,1-.76-5C866.81,66.25,866.65,68,866.31,69.71Z" transform="translate(562.08 438.27)"/><path class="cls-44" d="M739.51,881.53c.37.83.22,2,1.36,2.34a5,5,0,0,1-1,.94c-.71.4-1.24.16-1.26-.68A3,3,0,0,1,739.51,881.53Z" transform="translate(562.08 438.27)"/><path class="cls-34" d="M-250.19,25.31A1.85,1.85,0,0,1-249.06,24a.59.59,0,0,1,.94.48,3.5,3.5,0,0,1-.95,2.91C-249.41,26.68-249.11,25.63-250.19,25.31Z" transform="translate(562.08 438.27)"/><path class="cls-45" d="M337.36-197.36c.24.89.31,2.3-.45,2.35-1.29.08-1.5-1.2-1.29-2.36Z" transform="translate(562.08 438.27)"/><path class="cls-46" d="M716.38,977.57a7.71,7.71,0,0,1,5.08-.67C719.91,978.21,718.15,977.91,716.38,977.57Z" transform="translate(562.08 438.27)"/><path class="cls-47" d="M961.34,298.13c-.27-.13-.63-.2-.79-.42a6.73,6.73,0,0,1-.54-1.22,3.7,3.7,0,0,1,1.31-.23,3.94,3.94,0,0,1,1.15.72Z" transform="translate(562.08 438.27)"/><path class="cls-48" d="M848.14,704.12a11.87,11.87,0,0,1,1.49-1c.39-.18.92-.25,1.18.23a1,1,0,0,1-.2.79c-.39.44-.86.81-1.29,1.21Z" transform="translate(562.08 438.27)"/><path class="cls-49" d="M-240.71,742.73l1.35-1.35a13.13,13.13,0,0,1,1.38,1.08.8.8,0,0,1,.1.77,1.15,1.15,0,0,1-.81.29A2.27,2.27,0,0,1-240.71,742.73Z" transform="translate(562.08 438.27)"/><path class="cls-50" d="M829.76,755.85a2.13,2.13,0,0,0,1.31,1.34c-.16.73-.76.92-1.37,1s-.79-.36-.79-.84A1.6,1.6,0,0,1,829.76,755.85Z" transform="translate(562.08 438.27)"/><path class="cls-51" d="M826,151.07l1.21-.67c.42.78,1.35.55,2,1-.81,1-2,.84-3,1A.88.88,0,0,1,826,151.07Z" transform="translate(562.08 438.27)"/><path class="cls-52" d="M11.77,963.51,13,962.27a3,3,0,0,1,2,2,1.05,1.05,0,0,1-1.25.23C13,964.34,12.19,964.33,11.77,963.51Z" transform="translate(562.08 438.27)"/><path class="cls-33" d="M865.28,62.1a3.57,3.57,0,0,1-.48-.78c-.19-.6-.32-1.6.15-1.7A1.18,1.18,0,0,1,866.36,61Z" transform="translate(562.08 438.27)"/><path class="cls-41" d="M989.22,572.74c.77-.16,1.58-.09,1.58.86s-.88.88-1.6.75C989.2,573.82,989.21,573.28,989.22,572.74Z" transform="translate(562.08 438.27)"/><path class="cls-46" d="M725.48,977.85a3.31,3.31,0,0,1-3.09.77A2.56,2.56,0,0,1,725.48,977.85Z" transform="translate(562.08 438.27)"/><path class="cls-46" d="M725,976.59a5.49,5.49,0,0,1,1.25-.44.8.8,0,0,1,.85.88c0,.53-.39.73-.91.65Z" transform="translate(562.08 438.27)"/><path class="cls-53" d="M762.53,812.44c.06.69.13,1.39.19,2.08-.34.62-.78.52-.94,0A1.63,1.63,0,0,1,762.53,812.44Z" transform="translate(562.08 438.27)"/><path class="cls-33" d="M866.37,61a2.5,2.5,0,0,1,.91,2.85A2.68,2.68,0,0,1,866.37,61Z" transform="translate(562.08 438.27)"/><path class="cls-54" d="M251.12-195.34c.17.68,0,1.59-.57,1.56s-.63-1-.42-1.64Z" transform="translate(562.08 438.27)"/><path class="cls-55" d="M-234.72,736.81l.12-1.1a6.07,6.07,0,0,1,.74,1c.06.14-.18.57-.35.62C-234.54,737.47-234.73,737.19-234.72,736.81Z" transform="translate(562.08 438.27)"/><path class="cls-56" d="M13.75,964.52l1.25-.23c.38,0,.62.25.47.54a.74.74,0,0,1-.65.32A5.87,5.87,0,0,1,13.75,964.52Z" transform="translate(562.08 438.27)"/><path class="cls-57" d="M585.17,1067.88l1.84.14q.5.29.33.57c-.11.18-.23.28-.34.28l-1.91-.06A1.75,1.75,0,0,1,585.17,1067.88Z" transform="translate(562.08 438.27)"/><path class="cls-53" d="M763.56,814.26a.8.8,0,0,1,1.11-.66A.92.92,0,0,1,763.56,814.26Z" transform="translate(562.08 438.27)"/><path d="M356.6,195V96.47c0-.64,0-1.28,0-1.92,0-3.89.37-4.39,4.34-4.62,17.41-1,34.82-1.36,52.09,1.82A97.4,97.4,0,0,1,442.27,102c11.54,6.29,18.64,15.75,21.34,28.55a65.23,65.23,0,0,1-.26,29.45c-3.05,12.31-10.19,21.47-21.13,27.76a70.87,70.87,0,0,1-20.6,7.55A142.56,142.56,0,0,1,384,197.82c-7.49-.39-15-1-22.46-1.62C359.92,196.08,358.28,196.17,356.6,195Z" transform="translate(562.08 438.27)"/><path class="cls-58" d="M623.57,980.67l1.06,1.07a2.94,2.94,0,0,1-2.52.87c-.24,0-.46-.28-.69-.43.18-.24.3-.55.53-.69A17.55,17.55,0,0,1,623.57,980.67Z" transform="translate(562.08 438.27)"/><path class="cls-59" d="M-304.94,549.64c-.35.38-.7.76-1,1.15a8.26,8.26,0,0,1-.82-1.66c-.1-.41,0-1.21.2-1.29.74-.3,1,.43,1.3.93A5.13,5.13,0,0,1-304.94,549.64Z" transform="translate(562.08 438.27)"/><path d="M514.27-185.11a46.56,46.56,0,0,1-1,10,100,100,0,0,1-8.68,24.75,39.17,39.17,0,0,1-5.84,8.73c-5.78,6.38-13,8.93-21.51,8.08a35.55,35.55,0,0,1-11.49-3.13c-10.08-4.7-15.21-12.72-15.9-23.72A48,48,0,0,1,451-172.79a95.1,95.1,0,0,1,6.48-20.48,49.79,49.79,0,0,1,5.44-9.55c7.26-9.66,16.81-13.28,28.63-10.68a31.68,31.68,0,0,1,7.63,2.76c9.45,4.87,14.59,12.56,15.13,23.24C514.31-186.71,514.27-185.91,514.27-185.11Z" transform="translate(562.08 438.27)"/><path class="cls-60" d="M587,1068.87a1.63,1.63,0,0,0,0-.85,2.82,2.82,0,0,1,.92,0c.17.06.27.38.35.6,0,0-.22.24-.36.25C587.62,1068.92,587.31,1068.88,587,1068.87Z" transform="translate(562.08 438.27)"/><path class="cls-61" d="M826,151.07l.11,1.31c-.39.58-.89.84-1.35.18-.12-.17.25-.75.49-1.07S825.71,151.2,826,151.07Z" transform="translate(562.08 438.27)"/></svg>